<?xml version="1.0" encoding="UTF-8" standalone="no"?>
<!DOCTYPE svg PUBLIC "-//W3C//DTD SVG 1.1//EN"
 "http://www.w3.org/Graphics/SVG/1.1/DTD/svg11.dtd">
<!-- Generated by graphviz version 2.47.0 (20210316.0004)
 -->
<!-- Title: dependencies Pages: 1 -->
<svg width="504pt" height="211pt"
 viewBox="0.00 0.00 504.00 211.00" xmlns="http://www.w3.org/2000/svg" xmlns:xlink="http://www.w3.org/1999/xlink">
<g id="graph0" class="graph" transform="scale(1 1) rotate(0) translate(4 207)">
<title>dependencies</title>
<polygon fill="white" stroke="transparent" points="-4,4 -4,-207 500,-207 500,4 -4,4"/>
<text text-anchor="start" x="227.01" y="-42.4" font-family="Times-12" font-weight="bold" font-size="14.00">Legend</text>
<polygon fill="#ffffb3" stroke="transparent" points="14,-10 14,-30 34,-30 34,-10 14,-10"/>
<text text-anchor="start" x="37.63" y="-15.4" font-family="Times-12" font-size="14.00"> &#160;Declarations</text>
<polygon fill="#8dd3c7" stroke="transparent" points="127,-10 127,-30 147,-30 147,-10 127,-10"/>
<text text-anchor="start" x="150.73" y="-15.4" font-family="Times-12" font-size="14.00"> &#160;Module</text>
<polygon fill="#80b1d3" stroke="transparent" points="213,-10 213,-30 233,-30 233,-10 213,-10"/>
<text text-anchor="start" x="236.78" y="-15.4" font-family="Times-12" font-size="14.00"> &#160;Bootstrap</text>
<polygon fill="#fdb462" stroke="transparent" points="310,-10 310,-30 330,-30 330,-10 310,-10"/>
<text text-anchor="start" x="333.67" y="-15.4" font-family="Times-12" font-size="14.00"> &#160;Providers</text>
<polygon fill="#fb8072" stroke="transparent" points="406,-10 406,-30 426,-30 426,-10 406,-10"/>
<text text-anchor="start" x="429.73" y="-15.4" font-family="Times-12" font-size="14.00"> &#160;Exports</text>
<g id="clust1" class="cluster">
<title>cluster_TripsModule</title>
<polygon fill="none" stroke="black" stroke-dasharray="1,5" points="8,-70 8,-195 488,-195 488,-70 8,-70"/>
</g>
<g id="clust6" class="cluster">
<title>cluster_TripsModule_providers</title>
<polygon fill="none" stroke="black" points="16,-78 16,-130 480,-130 480,-78 16,-78"/>
</g>
<!-- BookingService -->
<g id="node1" class="node">
<title>BookingService</title>
<ellipse fill="#fdb462" stroke="black" cx="399" cy="-104" rx="73.02" ry="18"/>
<text text-anchor="middle" x="399" y="-99.8" font-family="Times,serif" font-size="14.00">BookingService</text>
</g>
<!-- TripsModule -->
<g id="node4" class="node">
<title>TripsModule</title>
<polygon fill="#8dd3c7" stroke="black" points="279.6,-187 276.6,-191 255.6,-191 252.6,-187 190.4,-187 190.4,-151 279.6,-151 279.6,-187"/>
<text text-anchor="middle" x="235" y="-164.8" font-family="Times,serif" font-size="14.00">TripsModule</text>
</g>
<!-- BookingService&#45;&gt;TripsModule -->
<g id="edge1" class="edge">
<title>BookingService&#45;&gt;TripsModule</title>
<path fill="none" stroke="black" d="M399,-122.11C399,-141.34 399,-169 399,-169 399,-169 289.81,-169 289.81,-169"/>
<polygon fill="black" stroke="black" points="289.81,-165.5 279.81,-169 289.81,-172.5 289.81,-165.5"/>
</g>
<!-- FirebaseService -->
<g id="node2" class="node">
<title>FirebaseService</title>
<ellipse fill="#fdb462" stroke="black" cx="235" cy="-104" rx="72.91" ry="18"/>
<text text-anchor="middle" x="235" y="-99.8" font-family="Times,serif" font-size="14.00">FirebaseService</text>
</g>
<!-- FirebaseService&#45;&gt;TripsModule -->
<g id="edge2" class="edge">
<title>FirebaseService&#45;&gt;TripsModule</title>
<path fill="none" stroke="black" d="M235,-122.11C235,-122.11 235,-140.99 235,-140.99"/>
<polygon fill="black" stroke="black" points="231.5,-140.99 235,-150.99 238.5,-140.99 231.5,-140.99"/>
</g>
<!-- TripsService -->
<g id="node3" class="node">
<title>TripsService</title>
<ellipse fill="#fdb462" stroke="black" cx="84" cy="-104" rx="60.25" ry="18"/>
<text text-anchor="middle" x="84" y="-99.8" font-family="Times,serif" font-size="14.00">TripsService</text>
</g>
<!-- TripsService&#45;&gt;TripsModule -->
<g id="edge3" class="edge">
<title>TripsService&#45;&gt;TripsModule</title>
<path fill="none" stroke="black" d="M84,-122.11C84,-141.34 84,-169 84,-169 84,-169 180.1,-169 180.1,-169"/>
<polygon fill="black" stroke="black" points="180.1,-172.5 190.1,-169 180.1,-165.5 180.1,-172.5"/>
</g>
</g>
</svg>
