<?xml version="1.0" encoding="UTF-8" standalone="no"?>
<!DOCTYPE svg PUBLIC "-//W3C//DTD SVG 1.1//EN"
 "http://www.w3.org/Graphics/SVG/1.1/DTD/svg11.dtd">
<!-- Generated by graphviz version 2.47.0 (20210316.0004)
 -->
<!-- Title: dependencies Pages: 1 -->
<svg width="611pt" height="211pt"
 viewBox="0.00 0.00 611.00 211.00" xmlns="http://www.w3.org/2000/svg" xmlns:xlink="http://www.w3.org/1999/xlink">
<g id="graph0" class="graph" transform="scale(1 1) rotate(0) translate(4 207)">
<title>dependencies</title>
<polygon fill="white" stroke="transparent" points="-4,4 -4,-207 607,-207 607,4 -4,4"/>
<text text-anchor="start" x="280.51" y="-42.4" font-family="Times-12" font-weight="bold" font-size="14.00">Legend</text>
<polygon fill="#ffffb3" stroke="transparent" points="67.5,-10 67.5,-30 87.5,-30 87.5,-10 67.5,-10"/>
<text text-anchor="start" x="91.13" y="-15.4" font-family="Times-12" font-size="14.00"> &#160;Declarations</text>
<polygon fill="#8dd3c7" stroke="transparent" points="180.5,-10 180.5,-30 200.5,-30 200.5,-10 180.5,-10"/>
<text text-anchor="start" x="204.23" y="-15.4" font-family="Times-12" font-size="14.00"> &#160;Module</text>
<polygon fill="#80b1d3" stroke="transparent" points="266.5,-10 266.5,-30 286.5,-30 286.5,-10 266.5,-10"/>
<text text-anchor="start" x="290.28" y="-15.4" font-family="Times-12" font-size="14.00"> &#160;Bootstrap</text>
<polygon fill="#fdb462" stroke="transparent" points="363.5,-10 363.5,-30 383.5,-30 383.5,-10 363.5,-10"/>
<text text-anchor="start" x="387.17" y="-15.4" font-family="Times-12" font-size="14.00"> &#160;Providers</text>
<polygon fill="#fb8072" stroke="transparent" points="459.5,-10 459.5,-30 479.5,-30 479.5,-10 459.5,-10"/>
<text text-anchor="start" x="483.23" y="-15.4" font-family="Times-12" font-size="14.00"> &#160;Exports</text>
<g id="clust1" class="cluster">
<title>cluster_AddressesModule</title>
<polygon fill="none" stroke="black" stroke-dasharray="1,5" points="8,-70 8,-195 595,-195 595,-70 8,-70"/>
</g>
<g id="clust6" class="cluster">
<title>cluster_AddressesModule_providers</title>
<polygon fill="none" stroke="black" points="248,-78 248,-130 587,-130 587,-78 248,-78"/>
</g>
<g id="clust3" class="cluster">
<title>cluster_AddressesModule_imports</title>
<polygon fill="none" stroke="black" points="16,-78 16,-130 240,-130 240,-78 16,-78"/>
</g>
<!-- PrismaModule -->
<g id="node1" class="node">
<title>PrismaModule</title>
<polygon fill="#8dd3c7" stroke="black" points="232.43,-122 229.43,-126 208.43,-126 205.43,-122 133.57,-122 133.57,-86 232.43,-86 232.43,-122"/>
<text text-anchor="middle" x="183" y="-99.8" font-family="Times,serif" font-size="14.00">PrismaModule</text>
</g>
<!-- AddressesModule -->
<g id="node3" class="node">
<title>AddressesModule</title>
<polygon fill="#8dd3c7" stroke="black" points="314.58,-187 311.58,-191 290.58,-191 287.58,-187 197.42,-187 197.42,-151 314.58,-151 314.58,-187"/>
<text text-anchor="middle" x="256" y="-164.8" font-family="Times,serif" font-size="14.00">AddressesModule</text>
</g>
<!-- PrismaModule&#45;&gt;AddressesModule -->
<g id="edge1" class="edge">
<title>PrismaModule&#45;&gt;AddressesModule</title>
<path fill="none" stroke="black" d="M214.84,-122.11C214.84,-122.11 214.84,-140.99 214.84,-140.99"/>
<polygon fill="black" stroke="black" points="211.34,-140.99 214.84,-150.99 218.34,-140.99 211.34,-140.99"/>
</g>
<!-- UsersModule -->
<g id="node2" class="node">
<title>UsersModule</title>
<polygon fill="#8dd3c7" stroke="black" points="115.92,-122 112.92,-126 91.92,-126 88.92,-122 24.08,-122 24.08,-86 115.92,-86 115.92,-122"/>
<text text-anchor="middle" x="70" y="-99.8" font-family="Times,serif" font-size="14.00">UsersModule</text>
</g>
<!-- UsersModule&#45;&gt;AddressesModule -->
<g id="edge2" class="edge">
<title>UsersModule&#45;&gt;AddressesModule</title>
<path fill="none" stroke="black" d="M70,-122.11C70,-141.34 70,-169 70,-169 70,-169 187.4,-169 187.4,-169"/>
<polygon fill="black" stroke="black" points="187.4,-172.5 197.4,-169 187.4,-165.5 187.4,-172.5"/>
</g>
<!-- AddressesService -->
<g id="node4" class="node">
<title>AddressesService</title>
<ellipse fill="#fdb462" stroke="black" cx="499" cy="-104" rx="79.85" ry="18"/>
<text text-anchor="middle" x="499" y="-99.8" font-family="Times,serif" font-size="14.00">AddressesService</text>
</g>
<!-- AddressesService&#45;&gt;AddressesModule -->
<g id="edge3" class="edge">
<title>AddressesService&#45;&gt;AddressesModule</title>
<path fill="none" stroke="black" d="M499,-122.11C499,-141.34 499,-169 499,-169 499,-169 324.82,-169 324.82,-169"/>
<polygon fill="black" stroke="black" points="324.82,-165.5 314.82,-169 324.82,-172.5 324.82,-165.5"/>
</g>
<!-- FirebaseService -->
<g id="node5" class="node">
<title>FirebaseService</title>
<ellipse fill="#fdb462" stroke="black" cx="329" cy="-104" rx="72.91" ry="18"/>
<text text-anchor="middle" x="329" y="-99.8" font-family="Times,serif" font-size="14.00">FirebaseService</text>
</g>
<!-- FirebaseService&#45;&gt;AddressesModule -->
<g id="edge4" class="edge">
<title>FirebaseService&#45;&gt;AddressesModule</title>
<path fill="none" stroke="black" d="M285.42,-118.43C285.42,-118.43 285.42,-140.89 285.42,-140.89"/>
<polygon fill="black" stroke="black" points="281.92,-140.89 285.42,-150.89 288.92,-140.89 281.92,-140.89"/>
</g>
</g>
</svg>
