<?xml version="1.0" encoding="UTF-8" standalone="no"?>
<!DOCTYPE svg PUBLIC "-//W3C//DTD SVG 1.1//EN"
 "http://www.w3.org/Graphics/SVG/1.1/DTD/svg11.dtd">
<!-- Generated by graphviz version 2.47.0 (20210316.0004)
 -->
<!-- Title: dependencies Pages: 1 -->
<svg width="611pt" height="211pt"
 viewBox="0.00 0.00 611.00 211.00" xmlns="http://www.w3.org/2000/svg" xmlns:xlink="http://www.w3.org/1999/xlink">
<g id="graph0" class="graph" transform="scale(1 1) rotate(0) translate(4 207)">
<title>dependencies</title>
<polygon fill="white" stroke="transparent" points="-4,4 -4,-207 607,-207 607,4 -4,4"/>
<text text-anchor="start" x="280.51" y="-42.4" font-family="Times-12" font-weight="bold" font-size="14.00">Legend</text>
<polygon fill="#ffffb3" stroke="transparent" points="67.5,-10 67.5,-30 87.5,-30 87.5,-10 67.5,-10"/>
<text text-anchor="start" x="91.13" y="-15.4" font-family="Times-12" font-size="14.00"> &#160;Declarations</text>
<polygon fill="#8dd3c7" stroke="transparent" points="180.5,-10 180.5,-30 200.5,-30 200.5,-10 180.5,-10"/>
<text text-anchor="start" x="204.23" y="-15.4" font-family="Times-12" font-size="14.00"> &#160;Module</text>
<polygon fill="#80b1d3" stroke="transparent" points="266.5,-10 266.5,-30 286.5,-30 286.5,-10 266.5,-10"/>
<text text-anchor="start" x="290.28" y="-15.4" font-family="Times-12" font-size="14.00"> &#160;Bootstrap</text>
<polygon fill="#fdb462" stroke="transparent" points="363.5,-10 363.5,-30 383.5,-30 383.5,-10 363.5,-10"/>
<text text-anchor="start" x="387.17" y="-15.4" font-family="Times-12" font-size="14.00"> &#160;Providers</text>
<polygon fill="#fb8072" stroke="transparent" points="459.5,-10 459.5,-30 479.5,-30 479.5,-10 459.5,-10"/>
<text text-anchor="start" x="483.23" y="-15.4" font-family="Times-12" font-size="14.00"> &#160;Exports</text>
<g id="clust1" class="cluster">
<title>cluster_AddressesModule</title>
<polygon fill="none" stroke="black" stroke-dasharray="1,5" points="8,-70 8,-195 595,-195 595,-70 8,-70"/>
</g>
<g id="clust3" class="cluster">
<title>cluster_AddressesModule_imports</title>
<polygon fill="none" stroke="black" points="363,-78 363,-130 587,-130 587,-78 363,-78"/>
</g>
<g id="clust6" class="cluster">
<title>cluster_AddressesModule_providers</title>
<polygon fill="none" stroke="black" points="16,-78 16,-130 355,-130 355,-78 16,-78"/>
</g>
<!-- PrismaModule -->
<g id="node1" class="node">
<title>PrismaModule</title>
<polygon fill="#8dd3c7" stroke="black" points="579.43,-122 576.43,-126 555.43,-126 552.43,-122 480.57,-122 480.57,-86 579.43,-86 579.43,-122"/>
<text text-anchor="middle" x="530" y="-99.8" font-family="Times,serif" font-size="14.00">PrismaModule</text>
</g>
<!-- AddressesModule -->
<g id="node3" class="node">
<title>AddressesModule</title>
<polygon fill="#8dd3c7" stroke="black" points="400.58,-187 397.58,-191 376.58,-191 373.58,-187 283.42,-187 283.42,-151 400.58,-151 400.58,-187"/>
<text text-anchor="middle" x="342" y="-164.8" font-family="Times,serif" font-size="14.00">AddressesModule</text>
</g>
<!-- PrismaModule&#45;&gt;AddressesModule -->
<g id="edge1" class="edge">
<title>PrismaModule&#45;&gt;AddressesModule</title>
<path fill="none" stroke="black" d="M530,-122.11C530,-141.34 530,-169 530,-169 530,-169 410.71,-169 410.71,-169"/>
<polygon fill="black" stroke="black" points="410.71,-165.5 400.71,-169 410.71,-172.5 410.71,-165.5"/>
</g>
<!-- UsersModule -->
<g id="node2" class="node">
<title>UsersModule</title>
<polygon fill="#8dd3c7" stroke="black" points="462.92,-122 459.92,-126 438.92,-126 435.92,-122 371.08,-122 371.08,-86 462.92,-86 462.92,-122"/>
<text text-anchor="middle" x="417" y="-99.8" font-family="Times,serif" font-size="14.00">UsersModule</text>
</g>
<!-- UsersModule&#45;&gt;AddressesModule -->
<g id="edge2" class="edge">
<title>UsersModule&#45;&gt;AddressesModule</title>
<path fill="none" stroke="black" d="M385.91,-122.11C385.91,-122.11 385.91,-140.99 385.91,-140.99"/>
<polygon fill="black" stroke="black" points="382.41,-140.99 385.91,-150.99 389.41,-140.99 382.41,-140.99"/>
</g>
<!-- AddressesService -->
<g id="node4" class="node">
<title>AddressesService</title>
<ellipse fill="#fdb462" stroke="black" cx="267" cy="-104" rx="79.85" ry="18"/>
<text text-anchor="middle" x="267" y="-99.8" font-family="Times,serif" font-size="14.00">AddressesService</text>
</g>
<!-- AddressesService&#45;&gt;AddressesModule -->
<g id="edge3" class="edge">
<title>AddressesService&#45;&gt;AddressesModule</title>
<path fill="none" stroke="black" d="M315.07,-118.43C315.07,-118.43 315.07,-140.89 315.07,-140.89"/>
<polygon fill="black" stroke="black" points="311.57,-140.89 315.07,-150.89 318.57,-140.89 311.57,-140.89"/>
</g>
<!-- FirebaseService -->
<g id="node5" class="node">
<title>FirebaseService</title>
<ellipse fill="#fdb462" stroke="black" cx="97" cy="-104" rx="72.91" ry="18"/>
<text text-anchor="middle" x="97" y="-99.8" font-family="Times,serif" font-size="14.00">FirebaseService</text>
</g>
<!-- FirebaseService&#45;&gt;AddressesModule -->
<g id="edge4" class="edge">
<title>FirebaseService&#45;&gt;AddressesModule</title>
<path fill="none" stroke="black" d="M97,-122.11C97,-141.34 97,-169 97,-169 97,-169 273.32,-169 273.32,-169"/>
<polygon fill="black" stroke="black" points="273.32,-172.5 283.32,-169 273.32,-165.5 273.32,-172.5"/>
</g>
</g>
</svg>
