<?xml version="1.0" encoding="UTF-8" standalone="no"?>
<!DOCTYPE svg PUBLIC "-//W3C//DTD SVG 1.1//EN"
 "http://www.w3.org/Graphics/SVG/1.1/DTD/svg11.dtd">
<!-- Generated by graphviz version 2.47.0 (20210316.0004)
 -->
<!-- Title: dependencies Pages: 1 -->
<svg width="504pt" height="211pt"
 viewBox="0.00 0.00 504.00 211.00" xmlns="http://www.w3.org/2000/svg" xmlns:xlink="http://www.w3.org/1999/xlink">
<g id="graph0" class="graph" transform="scale(1 1) rotate(0) translate(4 207)">
<title>dependencies</title>
<polygon fill="white" stroke="transparent" points="-4,4 -4,-207 500,-207 500,4 -4,4"/>
<text text-anchor="start" x="227.01" y="-42.4" font-family="Times-12" font-weight="bold" font-size="14.00">Legend</text>
<polygon fill="#ffffb3" stroke="transparent" points="14,-10 14,-30 34,-30 34,-10 14,-10"/>
<text text-anchor="start" x="37.63" y="-15.4" font-family="Times-12" font-size="14.00"> &#160;Declarations</text>
<polygon fill="#8dd3c7" stroke="transparent" points="127,-10 127,-30 147,-30 147,-10 127,-10"/>
<text text-anchor="start" x="150.73" y="-15.4" font-family="Times-12" font-size="14.00"> &#160;Module</text>
<polygon fill="#80b1d3" stroke="transparent" points="213,-10 213,-30 233,-30 233,-10 213,-10"/>
<text text-anchor="start" x="236.78" y="-15.4" font-family="Times-12" font-size="14.00"> &#160;Bootstrap</text>
<polygon fill="#fdb462" stroke="transparent" points="310,-10 310,-30 330,-30 330,-10 310,-10"/>
<text text-anchor="start" x="333.67" y="-15.4" font-family="Times-12" font-size="14.00"> &#160;Providers</text>
<polygon fill="#fb8072" stroke="transparent" points="406,-10 406,-30 426,-30 426,-10 406,-10"/>
<text text-anchor="start" x="429.73" y="-15.4" font-family="Times-12" font-size="14.00"> &#160;Exports</text>
<g id="clust1" class="cluster">
<title>cluster_VehicleModule</title>
<polygon fill="none" stroke="black" stroke-dasharray="1,5" points="97,-70 97,-195 399,-195 399,-70 97,-70"/>
</g>
<g id="clust6" class="cluster">
<title>cluster_VehicleModule_providers</title>
<polygon fill="none" stroke="black" points="235,-78 235,-130 391,-130 391,-78 235,-78"/>
</g>
<g id="clust3" class="cluster">
<title>cluster_VehicleModule_imports</title>
<polygon fill="none" stroke="black" points="105,-78 105,-130 227,-130 227,-78 105,-78"/>
</g>
<!-- FirebaseModule -->
<g id="node1" class="node">
<title>FirebaseModule</title>
<polygon fill="#8dd3c7" stroke="black" points="219.47,-122 216.47,-126 195.47,-126 192.47,-122 112.53,-122 112.53,-86 219.47,-86 219.47,-122"/>
<text text-anchor="middle" x="166" y="-99.8" font-family="Times,serif" font-size="14.00">FirebaseModule</text>
</g>
<!-- VehicleModule -->
<g id="node2" class="node">
<title>VehicleModule</title>
<polygon fill="#8dd3c7" stroke="black" points="290.58,-187 287.58,-191 266.58,-191 263.58,-187 187.42,-187 187.42,-151 290.58,-151 290.58,-187"/>
<text text-anchor="middle" x="239" y="-164.8" font-family="Times,serif" font-size="14.00">VehicleModule</text>
</g>
<!-- FirebaseModule&#45;&gt;VehicleModule -->
<g id="edge1" class="edge">
<title>FirebaseModule&#45;&gt;VehicleModule</title>
<path fill="none" stroke="black" d="M203.47,-122.11C203.47,-122.11 203.47,-140.99 203.47,-140.99"/>
<polygon fill="black" stroke="black" points="199.97,-140.99 203.47,-150.99 206.97,-140.99 199.97,-140.99"/>
</g>
<!-- VehicleService -->
<g id="node3" class="node">
<title>VehicleService</title>
<ellipse fill="#fdb462" stroke="black" cx="313" cy="-104" rx="70.04" ry="18"/>
<text text-anchor="middle" x="313" y="-99.8" font-family="Times,serif" font-size="14.00">VehicleService</text>
</g>
<!-- VehicleService&#45;&gt;VehicleModule -->
<g id="edge2" class="edge">
<title>VehicleService&#45;&gt;VehicleModule</title>
<path fill="none" stroke="black" d="M266.76,-117.78C266.76,-117.78 266.76,-140.55 266.76,-140.55"/>
<polygon fill="black" stroke="black" points="263.26,-140.55 266.76,-150.55 270.26,-140.55 263.26,-140.55"/>
</g>
</g>
</svg>
