<?xml version="1.0" encoding="UTF-8" standalone="no"?>
<!DOCTYPE svg PUBLIC "-//W3C//DTD SVG 1.1//EN"
 "http://www.w3.org/Graphics/SVG/1.1/DTD/svg11.dtd">
<!-- Generated by graphviz version 2.47.0 (20210316.0004)
 -->
<!-- Title: dependencies Pages: 1 -->
<svg width="1465pt" height="211pt"
 viewBox="0.00 0.00 1465.00 211.00" xmlns="http://www.w3.org/2000/svg" xmlns:xlink="http://www.w3.org/1999/xlink">
<g id="graph0" class="graph" transform="scale(1 1) rotate(0) translate(4 207)">
<title>dependencies</title>
<polygon fill="white" stroke="transparent" points="-4,4 -4,-207 1461,-207 1461,4 -4,4"/>
<text text-anchor="start" x="707.51" y="-42.4" font-family="Times-12" font-weight="bold" font-size="14.00">Legend</text>
<polygon fill="#ffffb3" stroke="transparent" points="494.5,-10 494.5,-30 514.5,-30 514.5,-10 494.5,-10"/>
<text text-anchor="start" x="518.13" y="-15.4" font-family="Times-12" font-size="14.00"> &#160;Declarations</text>
<polygon fill="#8dd3c7" stroke="transparent" points="607.5,-10 607.5,-30 627.5,-30 627.5,-10 607.5,-10"/>
<text text-anchor="start" x="631.23" y="-15.4" font-family="Times-12" font-size="14.00"> &#160;Module</text>
<polygon fill="#80b1d3" stroke="transparent" points="693.5,-10 693.5,-30 713.5,-30 713.5,-10 693.5,-10"/>
<text text-anchor="start" x="717.28" y="-15.4" font-family="Times-12" font-size="14.00"> &#160;Bootstrap</text>
<polygon fill="#fdb462" stroke="transparent" points="790.5,-10 790.5,-30 810.5,-30 810.5,-10 790.5,-10"/>
<text text-anchor="start" x="814.17" y="-15.4" font-family="Times-12" font-size="14.00"> &#160;Providers</text>
<polygon fill="#fb8072" stroke="transparent" points="886.5,-10 886.5,-30 906.5,-30 906.5,-10 886.5,-10"/>
<text text-anchor="start" x="910.23" y="-15.4" font-family="Times-12" font-size="14.00"> &#160;Exports</text>
<g id="clust1" class="cluster">
<title>cluster_AppModule</title>
<polygon fill="none" stroke="black" stroke-dasharray="1,5" points="8,-70 8,-195 1449,-195 1449,-70 8,-70"/>
</g>
<g id="clust6" class="cluster">
<title>cluster_AppModule_providers</title>
<polygon fill="none" stroke="black" points="1169,-78 1169,-130 1441,-130 1441,-78 1169,-78"/>
</g>
<g id="clust3" class="cluster">
<title>cluster_AppModule_imports</title>
<polygon fill="none" stroke="black" points="16,-78 16,-130 1161,-130 1161,-78 16,-78"/>
</g>
<!-- AddressesModule -->
<g id="node1" class="node">
<title>AddressesModule</title>
<polygon fill="#8dd3c7" stroke="black" points="1152.58,-122 1149.58,-126 1128.58,-126 1125.58,-122 1035.42,-122 1035.42,-86 1152.58,-86 1152.58,-122"/>
<text text-anchor="middle" x="1094" y="-99.8" font-family="Times,serif" font-size="14.00">AddressesModule</text>
</g>
<!-- AppModule -->
<g id="node10" class="node">
<title>AppModule</title>
<polygon fill="#8dd3c7" stroke="black" points="703.66,-187 700.66,-191 679.66,-191 676.66,-187 620.34,-187 620.34,-151 703.66,-151 703.66,-187"/>
<text text-anchor="middle" x="662" y="-164.8" font-family="Times,serif" font-size="14.00">AppModule</text>
</g>
<!-- AddressesModule&#45;&gt;AppModule -->
<g id="edge1" class="edge">
<title>AddressesModule&#45;&gt;AppModule</title>
<path fill="none" stroke="black" d="M1094,-122.11C1094,-141.34 1094,-169 1094,-169 1094,-169 713.81,-169 713.81,-169"/>
<polygon fill="black" stroke="black" points="713.81,-165.5 703.81,-169 713.81,-172.5 713.81,-165.5"/>
</g>
<!-- BookingModule -->
<g id="node2" class="node">
<title>BookingModule</title>
<polygon fill="#8dd3c7" stroke="black" points="1017.78,-122 1014.78,-126 993.78,-126 990.78,-122 910.22,-122 910.22,-86 1017.78,-86 1017.78,-122"/>
<text text-anchor="middle" x="964" y="-99.8" font-family="Times,serif" font-size="14.00">BookingModule</text>
</g>
<!-- BookingModule&#45;&gt;AppModule -->
<g id="edge2" class="edge">
<title>BookingModule&#45;&gt;AppModule</title>
<path fill="none" stroke="black" d="M964,-122.02C964,-139.37 964,-163 964,-163 964,-163 713.67,-163 713.67,-163"/>
<polygon fill="black" stroke="black" points="713.67,-159.5 703.67,-163 713.67,-166.5 713.67,-159.5"/>
</g>
<!-- DriversLicensesModule -->
<g id="node3" class="node">
<title>DriversLicensesModule</title>
<polygon fill="#8dd3c7" stroke="black" points="892,-122 889,-126 868,-126 865,-122 742,-122 742,-86 892,-86 892,-122"/>
<text text-anchor="middle" x="817" y="-99.8" font-family="Times,serif" font-size="14.00">DriversLicensesModule</text>
</g>
<!-- DriversLicensesModule&#45;&gt;AppModule -->
<g id="edge3" class="edge">
<title>DriversLicensesModule&#45;&gt;AppModule</title>
<path fill="none" stroke="black" d="M817,-122.24C817,-137.57 817,-157 817,-157 817,-157 713.95,-157 713.95,-157"/>
<polygon fill="black" stroke="black" points="713.95,-153.5 703.95,-157 713.95,-160.5 713.95,-153.5"/>
</g>
<!-- FileStorageModule -->
<g id="node4" class="node">
<title>FileStorageModule</title>
<polygon fill="#8dd3c7" stroke="black" points="724.09,-122 721.09,-126 700.09,-126 697.09,-122 599.91,-122 599.91,-86 724.09,-86 724.09,-122"/>
<text text-anchor="middle" x="662" y="-99.8" font-family="Times,serif" font-size="14.00">FileStorageModule</text>
</g>
<!-- FileStorageModule&#45;&gt;AppModule -->
<g id="edge4" class="edge">
<title>FileStorageModule&#45;&gt;AppModule</title>
<path fill="none" stroke="black" d="M662,-122.11C662,-122.11 662,-140.99 662,-140.99"/>
<polygon fill="black" stroke="black" points="658.5,-140.99 662,-150.99 665.5,-140.99 658.5,-140.99"/>
</g>
<!-- FirebaseModule -->
<g id="node5" class="node">
<title>FirebaseModule</title>
<polygon fill="#8dd3c7" stroke="black" points="581.47,-122 578.47,-126 557.47,-126 554.47,-122 474.53,-122 474.53,-86 581.47,-86 581.47,-122"/>
<text text-anchor="middle" x="528" y="-99.8" font-family="Times,serif" font-size="14.00">FirebaseModule</text>
</g>
<!-- FirebaseModule&#45;&gt;AppModule -->
<g id="edge5" class="edge">
<title>FirebaseModule&#45;&gt;AppModule</title>
<path fill="none" stroke="black" d="M528,-122.24C528,-137.57 528,-157 528,-157 528,-157 610.34,-157 610.34,-157"/>
<polygon fill="black" stroke="black" points="610.34,-160.5 620.34,-157 610.34,-153.5 610.34,-160.5"/>
</g>
<!-- PrismaModule -->
<g id="node6" class="node">
<title>PrismaModule</title>
<polygon fill="#8dd3c7" stroke="black" points="456.43,-122 453.43,-126 432.43,-126 429.43,-122 357.57,-122 357.57,-86 456.43,-86 456.43,-122"/>
<text text-anchor="middle" x="407" y="-99.8" font-family="Times,serif" font-size="14.00">PrismaModule</text>
</g>
<!-- PrismaModule&#45;&gt;AppModule -->
<g id="edge6" class="edge">
<title>PrismaModule&#45;&gt;AppModule</title>
<path fill="none" stroke="black" d="M407,-122.02C407,-139.37 407,-163 407,-163 407,-163 610.18,-163 610.18,-163"/>
<polygon fill="black" stroke="black" points="610.18,-166.5 620.18,-163 610.18,-159.5 610.18,-166.5"/>
</g>
<!-- TripsModule -->
<g id="node7" class="node">
<title>TripsModule</title>
<polygon fill="#8dd3c7" stroke="black" points="339.6,-122 336.6,-126 315.6,-126 312.6,-122 250.4,-122 250.4,-86 339.6,-86 339.6,-122"/>
<text text-anchor="middle" x="295" y="-99.8" font-family="Times,serif" font-size="14.00">TripsModule</text>
</g>
<!-- TripsModule&#45;&gt;AppModule -->
<g id="edge7" class="edge">
<title>TripsModule&#45;&gt;AppModule</title>
<path fill="none" stroke="black" d="M295,-122.11C295,-141.34 295,-169 295,-169 295,-169 610.26,-169 610.26,-169"/>
<polygon fill="black" stroke="black" points="610.26,-172.5 620.26,-169 610.26,-165.5 610.26,-172.5"/>
</g>
<!-- UserModule -->
<g id="node8" class="node">
<title>UserModule</title>
<polygon fill="#8dd3c7" stroke="black" points="231.98,-122 228.98,-126 207.98,-126 204.98,-122 146.02,-122 146.02,-86 231.98,-86 231.98,-122"/>
<text text-anchor="middle" x="189" y="-99.8" font-family="Times,serif" font-size="14.00">UserModule</text>
</g>
<!-- UserModule&#45;&gt;AppModule -->
<g id="edge8" class="edge">
<title>UserModule&#45;&gt;AppModule</title>
<path fill="none" stroke="black" d="M189,-122.28C189,-143.32 189,-175 189,-175 189,-175 610.02,-175 610.02,-175"/>
<polygon fill="black" stroke="black" points="610.02,-178.5 620.02,-175 610.02,-171.5 610.02,-178.5"/>
</g>
<!-- VehicleModule -->
<g id="node9" class="node">
<title>VehicleModule</title>
<polygon fill="#8dd3c7" stroke="black" points="127.58,-122 124.58,-126 103.58,-126 100.58,-122 24.42,-122 24.42,-86 127.58,-86 127.58,-122"/>
<text text-anchor="middle" x="76" y="-99.8" font-family="Times,serif" font-size="14.00">VehicleModule</text>
</g>
<!-- VehicleModule&#45;&gt;AppModule -->
<g id="edge9" class="edge">
<title>VehicleModule&#45;&gt;AppModule</title>
<path fill="none" stroke="black" d="M76,-122.09C76,-145.13 76,-182 76,-182 76,-182 610.33,-182 610.33,-182"/>
<polygon fill="black" stroke="black" points="610.33,-185.5 620.33,-182 610.33,-178.5 610.33,-185.5"/>
</g>
<!-- AppService -->
<g id="node11" class="node">
<title>AppService</title>
<ellipse fill="#fdb462" stroke="black" cx="1376" cy="-104" rx="56.74" ry="18"/>
<text text-anchor="middle" x="1376" y="-99.8" font-family="Times,serif" font-size="14.00">AppService</text>
</g>
<!-- AppService&#45;&gt;AppModule -->
<g id="edge10" class="edge">
<title>AppService&#45;&gt;AppModule</title>
<path fill="none" stroke="black" d="M1376,-122.09C1376,-145.13 1376,-182 1376,-182 1376,-182 713.74,-182 713.74,-182"/>
<polygon fill="black" stroke="black" points="713.74,-178.5 703.74,-182 713.74,-185.5 713.74,-178.5"/>
</g>
<!-- UsersService -->
<g id="node12" class="node">
<title>UsersService</title>
<ellipse fill="#fdb462" stroke="black" cx="1239" cy="-104" rx="61.95" ry="18"/>
<text text-anchor="middle" x="1239" y="-99.8" font-family="Times,serif" font-size="14.00">UsersService</text>
</g>
<!-- UsersService&#45;&gt;AppModule -->
<g id="edge11" class="edge">
<title>UsersService&#45;&gt;AppModule</title>
<path fill="none" stroke="black" d="M1239,-122.28C1239,-143.32 1239,-175 1239,-175 1239,-175 713.96,-175 713.96,-175"/>
<polygon fill="black" stroke="black" points="713.96,-171.5 703.96,-175 713.96,-178.5 713.96,-171.5"/>
</g>
</g>
</svg>
