<?xml version="1.0" encoding="UTF-8" standalone="no"?>
<!DOCTYPE svg PUBLIC "-//W3C//DTD SVG 1.1//EN"
 "http://www.w3.org/Graphics/SVG/1.1/DTD/svg11.dtd">
<!-- Generated by graphviz version 2.47.0 (20210316.0004)
 -->
<!-- Title: dependencies Pages: 1 -->
<svg width="1810pt" height="211pt"
 viewBox="0.00 0.00 1810.00 211.00" xmlns="http://www.w3.org/2000/svg" xmlns:xlink="http://www.w3.org/1999/xlink">
<g id="graph0" class="graph" transform="scale(1 1) rotate(0) translate(4 207)">
<title>dependencies</title>
<polygon fill="white" stroke="transparent" points="-4,4 -4,-207 1806,-207 1806,4 -4,4"/>
<text text-anchor="start" x="880.01" y="-42.4" font-family="Times-12" font-weight="bold" font-size="14.00">Legend</text>
<polygon fill="#ffffb3" stroke="transparent" points="667,-10 667,-30 687,-30 687,-10 667,-10"/>
<text text-anchor="start" x="690.63" y="-15.4" font-family="Times-12" font-size="14.00"> &#160;Declarations</text>
<polygon fill="#8dd3c7" stroke="transparent" points="780,-10 780,-30 800,-30 800,-10 780,-10"/>
<text text-anchor="start" x="803.73" y="-15.4" font-family="Times-12" font-size="14.00"> &#160;Module</text>
<polygon fill="#80b1d3" stroke="transparent" points="866,-10 866,-30 886,-30 886,-10 866,-10"/>
<text text-anchor="start" x="889.78" y="-15.4" font-family="Times-12" font-size="14.00"> &#160;Bootstrap</text>
<polygon fill="#fdb462" stroke="transparent" points="963,-10 963,-30 983,-30 983,-10 963,-10"/>
<text text-anchor="start" x="986.67" y="-15.4" font-family="Times-12" font-size="14.00"> &#160;Providers</text>
<polygon fill="#fb8072" stroke="transparent" points="1059,-10 1059,-30 1079,-30 1079,-10 1059,-10"/>
<text text-anchor="start" x="1082.73" y="-15.4" font-family="Times-12" font-size="14.00"> &#160;Exports</text>
<g id="clust1" class="cluster">
<title>cluster_AppModule</title>
<polygon fill="none" stroke="black" stroke-dasharray="1,5" points="8,-70 8,-195 1794,-195 1794,-70 8,-70"/>
</g>
<g id="clust6" class="cluster">
<title>cluster_AppModule_providers</title>
<polygon fill="none" stroke="black" points="1291,-78 1291,-130 1786,-130 1786,-78 1291,-78"/>
</g>
<g id="clust3" class="cluster">
<title>cluster_AppModule_imports</title>
<polygon fill="none" stroke="black" points="16,-78 16,-130 1283,-130 1283,-78 16,-78"/>
</g>
<!-- AddressesModule -->
<g id="node1" class="node">
<title>AddressesModule</title>
<polygon fill="#8dd3c7" stroke="black" points="1274.58,-122 1271.58,-126 1250.58,-126 1247.58,-122 1157.42,-122 1157.42,-86 1274.58,-86 1274.58,-122"/>
<text text-anchor="middle" x="1216" y="-99.8" font-family="Times,serif" font-size="14.00">AddressesModule</text>
</g>
<!-- AppModule -->
<g id="node11" class="node">
<title>AppModule</title>
<polygon fill="#8dd3c7" stroke="black" points="858.66,-187 855.66,-191 834.66,-191 831.66,-187 775.34,-187 775.34,-151 858.66,-151 858.66,-187"/>
<text text-anchor="middle" x="817" y="-164.8" font-family="Times,serif" font-size="14.00">AppModule</text>
</g>
<!-- AddressesModule&#45;&gt;AppModule -->
<g id="edge1" class="edge">
<title>AddressesModule&#45;&gt;AppModule</title>
<path fill="none" stroke="black" d="M1216,-122.22C1216,-140.83 1216,-167 1216,-167 1216,-167 868.95,-167 868.95,-167"/>
<polygon fill="black" stroke="black" points="868.95,-163.5 858.95,-167 868.95,-170.5 868.95,-163.5"/>
</g>
<!-- AdminsModule -->
<g id="node2" class="node">
<title>AdminsModule</title>
<polygon fill="#8dd3c7" stroke="black" points="1139.88,-122 1136.88,-126 1115.88,-126 1112.88,-122 1036.12,-122 1036.12,-86 1139.88,-86 1139.88,-122"/>
<text text-anchor="middle" x="1088" y="-99.8" font-family="Times,serif" font-size="14.00">AdminsModule</text>
</g>
<!-- AdminsModule&#45;&gt;AppModule -->
<g id="edge2" class="edge">
<title>AdminsModule&#45;&gt;AppModule</title>
<path fill="none" stroke="black" d="M1088,-122.03C1088,-139.06 1088,-162 1088,-162 1088,-162 868.75,-162 868.75,-162"/>
<polygon fill="black" stroke="black" points="868.75,-158.5 858.75,-162 868.75,-165.5 868.75,-158.5"/>
</g>
<!-- BookingModule -->
<g id="node3" class="node">
<title>BookingModule</title>
<polygon fill="#8dd3c7" stroke="black" points="1017.78,-122 1014.78,-126 993.78,-126 990.78,-122 910.22,-122 910.22,-86 1017.78,-86 1017.78,-122"/>
<text text-anchor="middle" x="964" y="-99.8" font-family="Times,serif" font-size="14.00">BookingModule</text>
</g>
<!-- BookingModule&#45;&gt;AppModule -->
<g id="edge3" class="edge">
<title>BookingModule&#45;&gt;AppModule</title>
<path fill="none" stroke="black" d="M964,-122.24C964,-137.57 964,-157 964,-157 964,-157 868.73,-157 868.73,-157"/>
<polygon fill="black" stroke="black" points="868.73,-153.5 858.73,-157 868.73,-160.5 868.73,-153.5"/>
</g>
<!-- DriversLicensesModule -->
<g id="node4" class="node">
<title>DriversLicensesModule</title>
<polygon fill="#8dd3c7" stroke="black" points="892,-122 889,-126 868,-126 865,-122 742,-122 742,-86 892,-86 892,-122"/>
<text text-anchor="middle" x="817" y="-99.8" font-family="Times,serif" font-size="14.00">DriversLicensesModule</text>
</g>
<!-- DriversLicensesModule&#45;&gt;AppModule -->
<g id="edge4" class="edge">
<title>DriversLicensesModule&#45;&gt;AppModule</title>
<path fill="none" stroke="black" d="M817,-122.11C817,-122.11 817,-140.99 817,-140.99"/>
<polygon fill="black" stroke="black" points="813.5,-140.99 817,-150.99 820.5,-140.99 813.5,-140.99"/>
</g>
<!-- FileStorageModule -->
<g id="node5" class="node">
<title>FileStorageModule</title>
<polygon fill="#8dd3c7" stroke="black" points="724.09,-122 721.09,-126 700.09,-126 697.09,-122 599.91,-122 599.91,-86 724.09,-86 724.09,-122"/>
<text text-anchor="middle" x="662" y="-99.8" font-family="Times,serif" font-size="14.00">FileStorageModule</text>
</g>
<!-- FileStorageModule&#45;&gt;AppModule -->
<g id="edge5" class="edge">
<title>FileStorageModule&#45;&gt;AppModule</title>
<path fill="none" stroke="black" d="M662,-122.24C662,-137.57 662,-157 662,-157 662,-157 765.05,-157 765.05,-157"/>
<polygon fill="black" stroke="black" points="765.05,-160.5 775.05,-157 765.05,-153.5 765.05,-160.5"/>
</g>
<!-- FirebaseModule -->
<g id="node6" class="node">
<title>FirebaseModule</title>
<polygon fill="#8dd3c7" stroke="black" points="581.47,-122 578.47,-126 557.47,-126 554.47,-122 474.53,-122 474.53,-86 581.47,-86 581.47,-122"/>
<text text-anchor="middle" x="528" y="-99.8" font-family="Times,serif" font-size="14.00">FirebaseModule</text>
</g>
<!-- FirebaseModule&#45;&gt;AppModule -->
<g id="edge6" class="edge">
<title>FirebaseModule&#45;&gt;AppModule</title>
<path fill="none" stroke="black" d="M528,-122.03C528,-139.06 528,-162 528,-162 528,-162 765.29,-162 765.29,-162"/>
<polygon fill="black" stroke="black" points="765.29,-165.5 775.29,-162 765.29,-158.5 765.29,-165.5"/>
</g>
<!-- PrismaModule -->
<g id="node7" class="node">
<title>PrismaModule</title>
<polygon fill="#8dd3c7" stroke="black" points="456.43,-122 453.43,-126 432.43,-126 429.43,-122 357.57,-122 357.57,-86 456.43,-86 456.43,-122"/>
<text text-anchor="middle" x="407" y="-99.8" font-family="Times,serif" font-size="14.00">PrismaModule</text>
</g>
<!-- PrismaModule&#45;&gt;AppModule -->
<g id="edge7" class="edge">
<title>PrismaModule&#45;&gt;AppModule</title>
<path fill="none" stroke="black" d="M407,-122.22C407,-140.83 407,-167 407,-167 407,-167 765.05,-167 765.05,-167"/>
<polygon fill="black" stroke="black" points="765.05,-170.5 775.05,-167 765.05,-163.5 765.05,-170.5"/>
</g>
<!-- TripsModule -->
<g id="node8" class="node">
<title>TripsModule</title>
<polygon fill="#8dd3c7" stroke="black" points="339.6,-122 336.6,-126 315.6,-126 312.6,-122 250.4,-122 250.4,-86 339.6,-86 339.6,-122"/>
<text text-anchor="middle" x="295" y="-99.8" font-family="Times,serif" font-size="14.00">TripsModule</text>
</g>
<!-- TripsModule&#45;&gt;AppModule -->
<g id="edge8" class="edge">
<title>TripsModule&#45;&gt;AppModule</title>
<path fill="none" stroke="black" d="M295,-122.22C295,-142.37 295,-172 295,-172 295,-172 765.16,-172 765.16,-172"/>
<polygon fill="black" stroke="black" points="765.16,-175.5 775.16,-172 765.16,-168.5 765.16,-175.5"/>
</g>
<!-- UserModule -->
<g id="node9" class="node">
<title>UserModule</title>
<polygon fill="#8dd3c7" stroke="black" points="231.98,-122 228.98,-126 207.98,-126 204.98,-122 146.02,-122 146.02,-86 231.98,-86 231.98,-122"/>
<text text-anchor="middle" x="189" y="-99.8" font-family="Times,serif" font-size="14.00">UserModule</text>
</g>
<!-- UserModule&#45;&gt;AppModule -->
<g id="edge9" class="edge">
<title>UserModule&#45;&gt;AppModule</title>
<path fill="none" stroke="black" d="M189,-122.04C189,-143.66 189,-177 189,-177 189,-177 765.31,-177 765.31,-177"/>
<polygon fill="black" stroke="black" points="765.31,-180.5 775.31,-177 765.31,-173.5 765.31,-180.5"/>
</g>
<!-- VehicleModule -->
<g id="node10" class="node">
<title>VehicleModule</title>
<polygon fill="#8dd3c7" stroke="black" points="127.58,-122 124.58,-126 103.58,-126 100.58,-122 24.42,-122 24.42,-86 127.58,-86 127.58,-122"/>
<text text-anchor="middle" x="76" y="-99.8" font-family="Times,serif" font-size="14.00">VehicleModule</text>
</g>
<!-- VehicleModule&#45;&gt;AppModule -->
<g id="edge10" class="edge">
<title>VehicleModule&#45;&gt;AppModule</title>
<path fill="none" stroke="black" d="M76,-122.09C76,-145.13 76,-182 76,-182 76,-182 765.31,-182 765.31,-182"/>
<polygon fill="black" stroke="black" points="765.31,-185.5 775.31,-182 765.31,-178.5 765.31,-185.5"/>
</g>
<!-- AppService -->
<g id="node12" class="node">
<title>AppService</title>
<ellipse fill="#fdb462" stroke="black" cx="1721" cy="-104" rx="56.74" ry="18"/>
<text text-anchor="middle" x="1721" y="-99.8" font-family="Times,serif" font-size="14.00">AppService</text>
</g>
<!-- AppService&#45;&gt;AppModule -->
<g id="edge11" class="edge">
<title>AppService&#45;&gt;AppModule</title>
<path fill="none" stroke="black" d="M1721,-122.09C1721,-145.13 1721,-182 1721,-182 1721,-182 868.79,-182 868.79,-182"/>
<polygon fill="black" stroke="black" points="868.79,-178.5 858.79,-182 868.79,-185.5 868.79,-178.5"/>
</g>
<!-- DriversLicensesService -->
<g id="node13" class="node">
<title>DriversLicensesService</title>
<ellipse fill="#fdb462" stroke="black" cx="1544" cy="-104" rx="102.96" ry="18"/>
<text text-anchor="middle" x="1544" y="-99.8" font-family="Times,serif" font-size="14.00">DriversLicensesService</text>
</g>
<!-- DriversLicensesService&#45;&gt;AppModule -->
<g id="edge12" class="edge">
<title>DriversLicensesService&#45;&gt;AppModule</title>
<path fill="none" stroke="black" d="M1544,-122.04C1544,-143.66 1544,-177 1544,-177 1544,-177 868.7,-177 868.7,-177"/>
<polygon fill="black" stroke="black" points="868.7,-173.5 858.7,-177 868.7,-180.5 868.7,-173.5"/>
</g>
<!-- UsersService -->
<g id="node14" class="node">
<title>UsersService</title>
<ellipse fill="#fdb462" stroke="black" cx="1361" cy="-104" rx="61.95" ry="18"/>
<text text-anchor="middle" x="1361" y="-99.8" font-family="Times,serif" font-size="14.00">UsersService</text>
</g>
<!-- UsersService&#45;&gt;AppModule -->
<g id="edge13" class="edge">
<title>UsersService&#45;&gt;AppModule</title>
<path fill="none" stroke="black" d="M1361,-122.22C1361,-142.37 1361,-172 1361,-172 1361,-172 868.78,-172 868.78,-172"/>
<polygon fill="black" stroke="black" points="868.78,-168.5 858.78,-172 868.78,-175.5 868.78,-168.5"/>
</g>
</g>
</svg>
