<?xml version="1.0" encoding="UTF-8" standalone="no"?>
<!DOCTYPE svg PUBLIC "-//W3C//DTD SVG 1.1//EN"
 "http://www.w3.org/Graphics/SVG/1.1/DTD/svg11.dtd">
<!-- Generated by graphviz version 2.47.0 (20210316.0004)
 -->
<!-- Title: dependencies Pages: 1 -->
<svg width="1587pt" height="211pt"
 viewBox="0.00 0.00 1587.00 211.00" xmlns="http://www.w3.org/2000/svg" xmlns:xlink="http://www.w3.org/1999/xlink">
<g id="graph0" class="graph" transform="scale(1 1) rotate(0) translate(4 207)">
<title>dependencies</title>
<polygon fill="white" stroke="transparent" points="-4,4 -4,-207 1583,-207 1583,4 -4,4"/>
<text text-anchor="start" x="768.51" y="-42.4" font-family="Times-12" font-weight="bold" font-size="14.00">Legend</text>
<polygon fill="#ffffb3" stroke="transparent" points="555.5,-10 555.5,-30 575.5,-30 575.5,-10 555.5,-10"/>
<text text-anchor="start" x="579.13" y="-15.4" font-family="Times-12" font-size="14.00"> &#160;Declarations</text>
<polygon fill="#8dd3c7" stroke="transparent" points="668.5,-10 668.5,-30 688.5,-30 688.5,-10 668.5,-10"/>
<text text-anchor="start" x="692.23" y="-15.4" font-family="Times-12" font-size="14.00"> &#160;Module</text>
<polygon fill="#80b1d3" stroke="transparent" points="754.5,-10 754.5,-30 774.5,-30 774.5,-10 754.5,-10"/>
<text text-anchor="start" x="778.28" y="-15.4" font-family="Times-12" font-size="14.00"> &#160;Bootstrap</text>
<polygon fill="#fdb462" stroke="transparent" points="851.5,-10 851.5,-30 871.5,-30 871.5,-10 851.5,-10"/>
<text text-anchor="start" x="875.17" y="-15.4" font-family="Times-12" font-size="14.00"> &#160;Providers</text>
<polygon fill="#fb8072" stroke="transparent" points="947.5,-10 947.5,-30 967.5,-30 967.5,-10 947.5,-10"/>
<text text-anchor="start" x="971.23" y="-15.4" font-family="Times-12" font-size="14.00"> &#160;Exports</text>
<g id="clust1" class="cluster">
<title>cluster_AppModule</title>
<polygon fill="none" stroke="black" stroke-dasharray="1,5" points="8,-70 8,-195 1571,-195 1571,-70 8,-70"/>
</g>
<g id="clust6" class="cluster">
<title>cluster_AppModule_providers</title>
<polygon fill="none" stroke="black" points="1291,-78 1291,-130 1563,-130 1563,-78 1291,-78"/>
</g>
<g id="clust3" class="cluster">
<title>cluster_AppModule_imports</title>
<polygon fill="none" stroke="black" points="16,-78 16,-130 1283,-130 1283,-78 16,-78"/>
</g>
<!-- AddressesModule -->
<g id="node1" class="node">
<title>AddressesModule</title>
<polygon fill="#8dd3c7" stroke="black" points="1274.58,-122 1271.58,-126 1250.58,-126 1247.58,-122 1157.42,-122 1157.42,-86 1274.58,-86 1274.58,-122"/>
<text text-anchor="middle" x="1216" y="-99.8" font-family="Times,serif" font-size="14.00">AddressesModule</text>
</g>
<!-- AppModule -->
<g id="node11" class="node">
<title>AppModule</title>
<polygon fill="#8dd3c7" stroke="black" points="780.66,-187 777.66,-191 756.66,-191 753.66,-187 697.34,-187 697.34,-151 780.66,-151 780.66,-187"/>
<text text-anchor="middle" x="739" y="-164.8" font-family="Times,serif" font-size="14.00">AppModule</text>
</g>
<!-- AddressesModule&#45;&gt;AppModule -->
<g id="edge1" class="edge">
<title>AddressesModule&#45;&gt;AppModule</title>
<path fill="none" stroke="black" d="M1216,-122.11C1216,-141.34 1216,-169 1216,-169 1216,-169 790.91,-169 790.91,-169"/>
<polygon fill="black" stroke="black" points="790.91,-165.5 780.91,-169 790.91,-172.5 790.91,-165.5"/>
</g>
<!-- AdminsModule -->
<g id="node2" class="node">
<title>AdminsModule</title>
<polygon fill="#8dd3c7" stroke="black" points="1139.88,-122 1136.88,-126 1115.88,-126 1112.88,-122 1036.12,-122 1036.12,-86 1139.88,-86 1139.88,-122"/>
<text text-anchor="middle" x="1088" y="-99.8" font-family="Times,serif" font-size="14.00">AdminsModule</text>
</g>
<!-- AdminsModule&#45;&gt;AppModule -->
<g id="edge2" class="edge">
<title>AdminsModule&#45;&gt;AppModule</title>
<path fill="none" stroke="black" d="M1088,-122.02C1088,-139.37 1088,-163 1088,-163 1088,-163 790.75,-163 790.75,-163"/>
<polygon fill="black" stroke="black" points="790.75,-159.5 780.75,-163 790.75,-166.5 790.75,-159.5"/>
</g>
<!-- BookingModule -->
<g id="node3" class="node">
<title>BookingModule</title>
<polygon fill="#8dd3c7" stroke="black" points="1017.78,-122 1014.78,-126 993.78,-126 990.78,-122 910.22,-122 910.22,-86 1017.78,-86 1017.78,-122"/>
<text text-anchor="middle" x="964" y="-99.8" font-family="Times,serif" font-size="14.00">BookingModule</text>
</g>
<!-- BookingModule&#45;&gt;AppModule -->
<g id="edge3" class="edge">
<title>BookingModule&#45;&gt;AppModule</title>
<path fill="none" stroke="black" d="M964,-122.24C964,-137.57 964,-157 964,-157 964,-157 790.79,-157 790.79,-157"/>
<polygon fill="black" stroke="black" points="790.79,-153.5 780.79,-157 790.79,-160.5 790.79,-153.5"/>
</g>
<!-- DriversLicensesModule -->
<g id="node4" class="node">
<title>DriversLicensesModule</title>
<polygon fill="#8dd3c7" stroke="black" points="892,-122 889,-126 868,-126 865,-122 742,-122 742,-86 892,-86 892,-122"/>
<text text-anchor="middle" x="817" y="-99.8" font-family="Times,serif" font-size="14.00">DriversLicensesModule</text>
</g>
<!-- DriversLicensesModule&#45;&gt;AppModule -->
<g id="edge4" class="edge">
<title>DriversLicensesModule&#45;&gt;AppModule</title>
<path fill="none" stroke="black" d="M761.29,-122.11C761.29,-122.11 761.29,-140.99 761.29,-140.99"/>
<polygon fill="black" stroke="black" points="757.79,-140.99 761.29,-150.99 764.79,-140.99 757.79,-140.99"/>
</g>
<!-- FileStorageModule -->
<g id="node5" class="node">
<title>FileStorageModule</title>
<polygon fill="#8dd3c7" stroke="black" points="724.09,-122 721.09,-126 700.09,-126 697.09,-122 599.91,-122 599.91,-86 724.09,-86 724.09,-122"/>
<text text-anchor="middle" x="662" y="-99.8" font-family="Times,serif" font-size="14.00">FileStorageModule</text>
</g>
<!-- FileStorageModule&#45;&gt;AppModule -->
<g id="edge5" class="edge">
<title>FileStorageModule&#45;&gt;AppModule</title>
<path fill="none" stroke="black" d="M710.61,-122.11C710.61,-122.11 710.61,-140.99 710.61,-140.99"/>
<polygon fill="black" stroke="black" points="707.11,-140.99 710.61,-150.99 714.11,-140.99 707.11,-140.99"/>
</g>
<!-- FirebaseModule -->
<g id="node6" class="node">
<title>FirebaseModule</title>
<polygon fill="#8dd3c7" stroke="black" points="581.47,-122 578.47,-126 557.47,-126 554.47,-122 474.53,-122 474.53,-86 581.47,-86 581.47,-122"/>
<text text-anchor="middle" x="528" y="-99.8" font-family="Times,serif" font-size="14.00">FirebaseModule</text>
</g>
<!-- FirebaseModule&#45;&gt;AppModule -->
<g id="edge6" class="edge">
<title>FirebaseModule&#45;&gt;AppModule</title>
<path fill="none" stroke="black" d="M528,-122.24C528,-137.57 528,-157 528,-157 528,-157 687.31,-157 687.31,-157"/>
<polygon fill="black" stroke="black" points="687.31,-160.5 697.31,-157 687.31,-153.5 687.31,-160.5"/>
</g>
<!-- PrismaModule -->
<g id="node7" class="node">
<title>PrismaModule</title>
<polygon fill="#8dd3c7" stroke="black" points="456.43,-122 453.43,-126 432.43,-126 429.43,-122 357.57,-122 357.57,-86 456.43,-86 456.43,-122"/>
<text text-anchor="middle" x="407" y="-99.8" font-family="Times,serif" font-size="14.00">PrismaModule</text>
</g>
<!-- PrismaModule&#45;&gt;AppModule -->
<g id="edge7" class="edge">
<title>PrismaModule&#45;&gt;AppModule</title>
<path fill="none" stroke="black" d="M407,-122.02C407,-139.37 407,-163 407,-163 407,-163 687.29,-163 687.29,-163"/>
<polygon fill="black" stroke="black" points="687.29,-166.5 697.29,-163 687.29,-159.5 687.29,-166.5"/>
</g>
<!-- TripsModule -->
<g id="node8" class="node">
<title>TripsModule</title>
<polygon fill="#8dd3c7" stroke="black" points="339.6,-122 336.6,-126 315.6,-126 312.6,-122 250.4,-122 250.4,-86 339.6,-86 339.6,-122"/>
<text text-anchor="middle" x="295" y="-99.8" font-family="Times,serif" font-size="14.00">TripsModule</text>
</g>
<!-- TripsModule&#45;&gt;AppModule -->
<g id="edge8" class="edge">
<title>TripsModule&#45;&gt;AppModule</title>
<path fill="none" stroke="black" d="M295,-122.11C295,-141.34 295,-169 295,-169 295,-169 687.23,-169 687.23,-169"/>
<polygon fill="black" stroke="black" points="687.23,-172.5 697.23,-169 687.23,-165.5 687.23,-172.5"/>
</g>
<!-- UserModule -->
<g id="node9" class="node">
<title>UserModule</title>
<polygon fill="#8dd3c7" stroke="black" points="231.98,-122 228.98,-126 207.98,-126 204.98,-122 146.02,-122 146.02,-86 231.98,-86 231.98,-122"/>
<text text-anchor="middle" x="189" y="-99.8" font-family="Times,serif" font-size="14.00">UserModule</text>
</g>
<!-- UserModule&#45;&gt;AppModule -->
<g id="edge9" class="edge">
<title>UserModule&#45;&gt;AppModule</title>
<path fill="none" stroke="black" d="M189,-122.28C189,-143.32 189,-175 189,-175 189,-175 687.21,-175 687.21,-175"/>
<polygon fill="black" stroke="black" points="687.21,-178.5 697.21,-175 687.21,-171.5 687.21,-178.5"/>
</g>
<!-- VehicleModule -->
<g id="node10" class="node">
<title>VehicleModule</title>
<polygon fill="#8dd3c7" stroke="black" points="127.58,-122 124.58,-126 103.58,-126 100.58,-122 24.42,-122 24.42,-86 127.58,-86 127.58,-122"/>
<text text-anchor="middle" x="76" y="-99.8" font-family="Times,serif" font-size="14.00">VehicleModule</text>
</g>
<!-- VehicleModule&#45;&gt;AppModule -->
<g id="edge10" class="edge">
<title>VehicleModule&#45;&gt;AppModule</title>
<path fill="none" stroke="black" d="M76,-122.09C76,-145.13 76,-182 76,-182 76,-182 687.28,-182 687.28,-182"/>
<polygon fill="black" stroke="black" points="687.28,-185.5 697.28,-182 687.28,-178.5 687.28,-185.5"/>
</g>
<!-- AppService -->
<g id="node12" class="node">
<title>AppService</title>
<ellipse fill="#fdb462" stroke="black" cx="1498" cy="-104" rx="56.74" ry="18"/>
<text text-anchor="middle" x="1498" y="-99.8" font-family="Times,serif" font-size="14.00">AppService</text>
</g>
<!-- AppService&#45;&gt;AppModule -->
<g id="edge11" class="edge">
<title>AppService&#45;&gt;AppModule</title>
<path fill="none" stroke="black" d="M1498,-122.09C1498,-145.13 1498,-182 1498,-182 1498,-182 790.89,-182 790.89,-182"/>
<polygon fill="black" stroke="black" points="790.89,-178.5 780.89,-182 790.89,-185.5 790.89,-178.5"/>
</g>
<!-- UsersService -->
<g id="node13" class="node">
<title>UsersService</title>
<ellipse fill="#fdb462" stroke="black" cx="1361" cy="-104" rx="61.95" ry="18"/>
<text text-anchor="middle" x="1361" y="-99.8" font-family="Times,serif" font-size="14.00">UsersService</text>
</g>
<!-- UsersService&#45;&gt;AppModule -->
<g id="edge12" class="edge">
<title>UsersService&#45;&gt;AppModule</title>
<path fill="none" stroke="black" d="M1361,-122.28C1361,-143.32 1361,-175 1361,-175 1361,-175 790.78,-175 790.78,-175"/>
<polygon fill="black" stroke="black" points="790.78,-171.5 780.78,-175 790.78,-178.5 790.78,-171.5"/>
</g>
</g>
</svg>
