<?xml version="1.0" encoding="UTF-8" standalone="no"?>
<!DOCTYPE svg PUBLIC "-//W3C//DTD SVG 1.1//EN"
 "http://www.w3.org/Graphics/SVG/1.1/DTD/svg11.dtd">
<!-- Generated by graphviz version 2.47.0 (20210316.0004)
 -->
<!-- Title: dependencies Pages: 1 -->
<svg width="504pt" height="211pt"
 viewBox="0.00 0.00 504.00 211.00" xmlns="http://www.w3.org/2000/svg" xmlns:xlink="http://www.w3.org/1999/xlink">
<g id="graph0" class="graph" transform="scale(1 1) rotate(0) translate(4 207)">
<title>dependencies</title>
<polygon fill="white" stroke="transparent" points="-4,4 -4,-207 500,-207 500,4 -4,4"/>
<text text-anchor="start" x="227.01" y="-42.4" font-family="Times-12" font-weight="bold" font-size="14.00">Legend</text>
<polygon fill="#ffffb3" stroke="transparent" points="14,-10 14,-30 34,-30 34,-10 14,-10"/>
<text text-anchor="start" x="37.63" y="-15.4" font-family="Times-12" font-size="14.00"> &#160;Declarations</text>
<polygon fill="#8dd3c7" stroke="transparent" points="127,-10 127,-30 147,-30 147,-10 127,-10"/>
<text text-anchor="start" x="150.73" y="-15.4" font-family="Times-12" font-size="14.00"> &#160;Module</text>
<polygon fill="#80b1d3" stroke="transparent" points="213,-10 213,-30 233,-30 233,-10 213,-10"/>
<text text-anchor="start" x="236.78" y="-15.4" font-family="Times-12" font-size="14.00"> &#160;Bootstrap</text>
<polygon fill="#fdb462" stroke="transparent" points="310,-10 310,-30 330,-30 330,-10 310,-10"/>
<text text-anchor="start" x="333.67" y="-15.4" font-family="Times-12" font-size="14.00"> &#160;Providers</text>
<polygon fill="#fb8072" stroke="transparent" points="406,-10 406,-30 426,-30 426,-10 406,-10"/>
<text text-anchor="start" x="429.73" y="-15.4" font-family="Times-12" font-size="14.00"> &#160;Exports</text>
<g id="clust1" class="cluster">
<title>cluster_FileStorageModule</title>
<polygon fill="none" stroke="black" stroke-dasharray="1,5" points="82,-70 82,-195 414,-195 414,-70 82,-70"/>
</g>
<g id="clust6" class="cluster">
<title>cluster_FileStorageModule_providers</title>
<polygon fill="none" stroke="black" points="220,-78 220,-130 406,-130 406,-78 220,-78"/>
</g>
<g id="clust3" class="cluster">
<title>cluster_FileStorageModule_imports</title>
<polygon fill="none" stroke="black" points="90,-78 90,-130 212,-130 212,-78 90,-78"/>
</g>
<!-- FirebaseModule -->
<g id="node1" class="node">
<title>FirebaseModule</title>
<polygon fill="#8dd3c7" stroke="black" points="204.47,-122 201.47,-126 180.47,-126 177.47,-122 97.53,-122 97.53,-86 204.47,-86 204.47,-122"/>
<text text-anchor="middle" x="151" y="-99.8" font-family="Times,serif" font-size="14.00">FirebaseModule</text>
</g>
<!-- FileStorageModule -->
<g id="node2" class="node">
<title>FileStorageModule</title>
<polygon fill="#8dd3c7" stroke="black" points="294.09,-187 291.09,-191 270.09,-191 267.09,-187 169.91,-187 169.91,-151 294.09,-151 294.09,-187"/>
<text text-anchor="middle" x="232" y="-164.8" font-family="Times,serif" font-size="14.00">FileStorageModule</text>
</g>
<!-- FirebaseModule&#45;&gt;FileStorageModule -->
<g id="edge1" class="edge">
<title>FirebaseModule&#45;&gt;FileStorageModule</title>
<path fill="none" stroke="black" d="M187.22,-122.11C187.22,-122.11 187.22,-140.99 187.22,-140.99"/>
<polygon fill="black" stroke="black" points="183.72,-140.99 187.22,-150.99 190.72,-140.99 183.72,-140.99"/>
</g>
<!-- FileStorageService -->
<g id="node3" class="node">
<title>FileStorageService</title>
<ellipse fill="#fdb462" stroke="black" cx="313" cy="-104" rx="84.52" ry="18"/>
<text text-anchor="middle" x="313" y="-99.8" font-family="Times,serif" font-size="14.00">FileStorageService</text>
</g>
<!-- FileStorageService&#45;&gt;FileStorageModule -->
<g id="edge2" class="edge">
<title>FileStorageService&#45;&gt;FileStorageModule</title>
<path fill="none" stroke="black" d="M261.27,-118.43C261.27,-118.43 261.27,-140.89 261.27,-140.89"/>
<polygon fill="black" stroke="black" points="257.77,-140.89 261.27,-150.89 264.77,-140.89 257.77,-140.89"/>
</g>
</g>
</svg>
