<?xml version="1.0" encoding="UTF-8" standalone="no"?>
<!DOCTYPE svg PUBLIC "-//W3C//DTD SVG 1.1//EN"
 "http://www.w3.org/Graphics/SVG/1.1/DTD/svg11.dtd">
<!-- Generated by graphviz version 2.47.0 (20210316.0004)
 -->
<!-- Title: dependencies Pages: 1 -->
<svg width="2143pt" height="363pt"
 viewBox="0.00 0.00 2143.00 363.00" xmlns="http://www.w3.org/2000/svg" xmlns:xlink="http://www.w3.org/1999/xlink">
<g id="graph0" class="graph" transform="scale(1 1) rotate(0) translate(4 359)">
<title>dependencies</title>
<polygon fill="white" stroke="transparent" points="-4,4 -4,-359 2139,-359 2139,4 -4,4"/>
<text text-anchor="start" x="1046.51" y="-42.4" font-family="Times-12" font-weight="bold" font-size="14.00">Legend</text>
<polygon fill="#ffffb3" stroke="transparent" points="833.5,-10 833.5,-30 853.5,-30 853.5,-10 833.5,-10"/>
<text text-anchor="start" x="857.13" y="-15.4" font-family="Times-12" font-size="14.00"> &#160;Declarations</text>
<polygon fill="#8dd3c7" stroke="transparent" points="946.5,-10 946.5,-30 966.5,-30 966.5,-10 946.5,-10"/>
<text text-anchor="start" x="970.23" y="-15.4" font-family="Times-12" font-size="14.00"> &#160;Module</text>
<polygon fill="#80b1d3" stroke="transparent" points="1032.5,-10 1032.5,-30 1052.5,-30 1052.5,-10 1032.5,-10"/>
<text text-anchor="start" x="1056.28" y="-15.4" font-family="Times-12" font-size="14.00"> &#160;Bootstrap</text>
<polygon fill="#fdb462" stroke="transparent" points="1129.5,-10 1129.5,-30 1149.5,-30 1149.5,-10 1129.5,-10"/>
<text text-anchor="start" x="1153.17" y="-15.4" font-family="Times-12" font-size="14.00"> &#160;Providers</text>
<polygon fill="#fb8072" stroke="transparent" points="1225.5,-10 1225.5,-30 1245.5,-30 1245.5,-10 1225.5,-10"/>
<text text-anchor="start" x="1249.23" y="-15.4" font-family="Times-12" font-size="14.00"> &#160;Exports</text>
<g id="clust1" class="cluster">
<title>cluster_AddressesModule</title>
<polygon fill="none" stroke="black" stroke-dasharray="1,5" points="306,-70 306,-282 661,-282 661,-70 306,-70"/>
</g>
<g id="clust3" class="cluster">
<title>cluster_AddressesModule_imports</title>
<polygon fill="none" stroke="black" points="378,-154 378,-206 602,-206 602,-154 378,-154"/>
</g>
<g id="clust6" class="cluster">
<title>cluster_AddressesModule_providers</title>
<polygon fill="none" stroke="black" points="314,-78 314,-130 653,-130 653,-78 314,-78"/>
</g>
<g id="clust7" class="cluster">
<title>cluster_AdminsModule</title>
<polygon fill="none" stroke="black" stroke-dasharray="1,5" points="1953,-146 1953,-282 2127,-282 2127,-146 1953,-146"/>
</g>
<g id="clust12" class="cluster">
<title>cluster_AdminsModule_providers</title>
<polygon fill="none" stroke="black" points="1961,-154 1961,-206 2119,-206 2119,-154 1961,-154"/>
</g>
<g id="clust13" class="cluster">
<title>cluster_AppModule</title>
<polygon fill="none" stroke="black" stroke-dasharray="1,5" points="951,-70 951,-347 1555,-347 1555,-70 951,-70"/>
</g>
<g id="clust15" class="cluster">
<title>cluster_AppModule_imports</title>
<polygon fill="none" stroke="black" points="1011,-154 1011,-282 1535,-282 1535,-154 1011,-154"/>
</g>
<g id="clust18" class="cluster">
<title>cluster_AppModule_providers</title>
<polygon fill="none" stroke="black" points="959,-78 959,-130 1455,-130 1455,-78 959,-78"/>
</g>
<g id="clust19" class="cluster">
<title>cluster_BookingModule</title>
<polygon fill="none" stroke="black" stroke-dasharray="1,5" points="1723,-70 1723,-138 1901,-138 1901,-70 1723,-70"/>
</g>
<g id="clust24" class="cluster">
<title>cluster_BookingModule_providers</title>
<polygon fill="none" stroke="black" points="1731,-78 1731,-130 1893,-130 1893,-78 1731,-78"/>
</g>
<g id="clust31" class="cluster">
<title>cluster_FileStorageModule</title>
<polygon fill="none" stroke="black" stroke-dasharray="1,5" points="1743,-146 1743,-214 1945,-214 1945,-146 1743,-146"/>
</g>
<g id="clust36" class="cluster">
<title>cluster_FileStorageModule_providers</title>
<polygon fill="none" stroke="black" points="1751,-154 1751,-206 1937,-206 1937,-154 1751,-154"/>
</g>
<g id="clust37" class="cluster">
<title>cluster_FirebaseModule</title>
<polygon fill="none" stroke="black" stroke-dasharray="1,5" points="803,-222 803,-290 943,-290 943,-222 803,-222"/>
</g>
<g id="clust40" class="cluster">
<title>cluster_FirebaseModule_exports</title>
<polygon fill="none" stroke="black" points="811,-230 811,-282 935,-282 935,-230 811,-230"/>
</g>
<g id="clust43" class="cluster">
<title>cluster_PrismaModule</title>
<polygon fill="none" stroke="black" stroke-dasharray="1,5" points="8,-70 8,-138 298,-138 298,-70 8,-70"/>
</g>
<g id="clust46" class="cluster">
<title>cluster_PrismaModule_exports</title>
<polygon fill="none" stroke="black" points="16,-78 16,-130 132,-130 132,-78 16,-78"/>
</g>
<g id="clust48" class="cluster">
<title>cluster_PrismaModule_providers</title>
<polygon fill="none" stroke="black" points="140,-78 140,-130 290,-130 290,-78 140,-78"/>
</g>
<g id="clust49" class="cluster">
<title>cluster_TripsModule</title>
<polygon fill="none" stroke="black" stroke-dasharray="1,5" points="1563,-70 1563,-138 1715,-138 1715,-70 1563,-70"/>
</g>
<g id="clust54" class="cluster">
<title>cluster_TripsModule_providers</title>
<polygon fill="none" stroke="black" points="1571,-78 1571,-130 1707,-130 1707,-78 1571,-78"/>
</g>
<g id="clust61" class="cluster">
<title>cluster_UsersModule</title>
<polygon fill="none" stroke="black" stroke-dasharray="1,5" points="669,-222 669,-290 795,-290 795,-222 669,-222"/>
</g>
<g id="clust64" class="cluster">
<title>cluster_UsersModule_exports</title>
<polygon fill="none" stroke="black" points="677,-230 677,-282 787,-282 787,-230 677,-230"/>
</g>
<g id="clust67" class="cluster">
<title>cluster_VehicleModule</title>
<polygon fill="none" stroke="black" stroke-dasharray="1,5" points="1563,-146 1563,-214 1735,-214 1735,-146 1563,-146"/>
</g>
<g id="clust72" class="cluster">
<title>cluster_VehicleModule_providers</title>
<polygon fill="none" stroke="black" points="1571,-154 1571,-206 1727,-206 1727,-154 1571,-154"/>
</g>
<!-- PrismaModule -->
<g id="node1" class="node">
<title>PrismaModule</title>
<polygon fill="#8dd3c7" stroke="black" points="484.43,-198 481.43,-202 460.43,-202 457.43,-198 385.57,-198 385.57,-162 484.43,-162 484.43,-198"/>
<text text-anchor="middle" x="435" y="-175.8" font-family="Times,serif" font-size="14.00">PrismaModule</text>
</g>
<!-- AddressesModule -->
<g id="node3" class="node">
<title>AddressesModule</title>
<polygon fill="#8dd3c7" stroke="black" points="652.58,-274 649.58,-278 628.58,-278 625.58,-274 535.42,-274 535.42,-238 652.58,-238 652.58,-274"/>
<text text-anchor="middle" x="594" y="-251.8" font-family="Times,serif" font-size="14.00">AddressesModule</text>
</g>
<!-- PrismaModule&#45;&gt;AddressesModule -->
<g id="edge1" class="edge">
<title>PrismaModule&#45;&gt;AddressesModule</title>
<path fill="none" stroke="black" d="M451.41,-198.03C451.41,-218.77 451.41,-250 451.41,-250 451.41,-250 525.18,-250 525.18,-250"/>
<polygon fill="black" stroke="black" points="525.18,-253.5 535.18,-250 525.18,-246.5 525.18,-253.5"/>
</g>
<!-- AppModule -->
<g id="node15" class="node">
<title>AppModule</title>
<polygon fill="#8dd3c7" stroke="black" points="1159.66,-339 1156.66,-343 1135.66,-343 1132.66,-339 1076.34,-339 1076.34,-303 1159.66,-303 1159.66,-339"/>
<text text-anchor="middle" x="1118" y="-316.8" font-family="Times,serif" font-size="14.00">AppModule</text>
</g>
<!-- PrismaModule&#45;&gt;AppModule -->
<g id="edge12" class="edge">
<title>PrismaModule&#45;&gt;AppModule</title>
<path fill="none" stroke="black" d="M418.59,-198.09C418.59,-237.99 418.59,-330 418.59,-330 418.59,-330 1066.08,-330 1066.08,-330"/>
<polygon fill="black" stroke="black" points="1066.08,-333.5 1076.08,-330 1066.08,-326.5 1066.08,-333.5"/>
</g>
<!-- PrismaService  -->
<g id="node22" class="node">
<title>PrismaService </title>
<polygon fill="#fb8072" stroke="black" points="124.36,-122 23.64,-122 23.64,-86 124.36,-86 124.36,-122"/>
<text text-anchor="middle" x="74" y="-99.8" font-family="Times,serif" font-size="14.00">PrismaService </text>
</g>
<!-- PrismaModule&#45;&gt;PrismaService  -->
<g id="edge28" class="edge">
<title>PrismaModule&#45;&gt;PrismaService </title>
<path fill="none" stroke="black" stroke-dasharray="5,2" d="M385.56,-186C286.69,-186 74,-186 74,-186 74,-186 74,-132.2 74,-132.2"/>
<polygon fill="black" stroke="black" points="77.5,-132.2 74,-122.2 70.5,-132.2 77.5,-132.2"/>
</g>
<!-- UsersModule -->
<g id="node2" class="node">
<title>UsersModule</title>
<polygon fill="#8dd3c7" stroke="black" points="593.92,-198 590.92,-202 569.92,-202 566.92,-198 502.08,-198 502.08,-162 593.92,-162 593.92,-198"/>
<text text-anchor="middle" x="548" y="-175.8" font-family="Times,serif" font-size="14.00">UsersModule</text>
</g>
<!-- UsersModule&#45;&gt;AddressesModule -->
<g id="edge2" class="edge">
<title>UsersModule&#45;&gt;AddressesModule</title>
<path fill="none" stroke="black" d="M564.59,-198.01C564.59,-198.01 564.59,-227.85 564.59,-227.85"/>
<polygon fill="black" stroke="black" points="561.09,-227.85 564.59,-237.85 568.09,-227.85 561.09,-227.85"/>
</g>
<!-- DriversLicensesModule -->
<g id="node9" class="node">
<title>DriversLicensesModule</title>
<polygon fill="#8dd3c7" stroke="black" points="1169,-198 1166,-202 1145,-202 1142,-198 1019,-198 1019,-162 1169,-162 1169,-198"/>
<text text-anchor="middle" x="1094" y="-175.8" font-family="Times,serif" font-size="14.00">DriversLicensesModule</text>
</g>
<!-- UsersModule&#45;&gt;DriversLicensesModule -->
<g id="edge21" class="edge">
<title>UsersModule&#45;&gt;DriversLicensesModule</title>
<path fill="none" stroke="black" d="M594.08,-180C594.08,-180 1008.66,-180 1008.66,-180"/>
<polygon fill="black" stroke="black" points="1008.66,-183.5 1018.66,-180 1008.66,-176.5 1008.66,-183.5"/>
</g>
<!-- UsersService  -->
<g id="node25" class="node">
<title>UsersService </title>
<polygon fill="#fb8072" stroke="black" points="778.85,-274 685.15,-274 685.15,-238 778.85,-238 778.85,-274"/>
<text text-anchor="middle" x="732" y="-251.8" font-family="Times,serif" font-size="14.00">UsersService </text>
</g>
<!-- UsersModule&#45;&gt;UsersService  -->
<g id="edge35" class="edge">
<title>UsersModule&#45;&gt;UsersService </title>
<path fill="none" stroke="black" stroke-dasharray="5,2" d="M593.96,-189C648.46,-189 732,-189 732,-189 732,-189 732,-227.69 732,-227.69"/>
<polygon fill="black" stroke="black" points="728.5,-227.69 732,-237.69 735.5,-227.69 728.5,-227.69"/>
</g>
<!-- AddressesModule&#45;&gt;AppModule -->
<g id="edge6" class="edge">
<title>AddressesModule&#45;&gt;AppModule</title>
<path fill="none" stroke="black" d="M594,-274.11C594,-293.34 594,-321 594,-321 594,-321 1066,-321 1066,-321"/>
<polygon fill="black" stroke="black" points="1066,-324.5 1076,-321 1066,-317.5 1066,-324.5"/>
</g>
<!-- AddressesService -->
<g id="node4" class="node">
<title>AddressesService</title>
<ellipse fill="#fdb462" stroke="black" cx="402" cy="-104" rx="79.85" ry="18"/>
<text text-anchor="middle" x="402" y="-99.8" font-family="Times,serif" font-size="14.00">AddressesService</text>
</g>
<!-- AddressesService&#45;&gt;AddressesModule -->
<g id="edge3" class="edge">
<title>AddressesService&#45;&gt;AddressesModule</title>
<path fill="none" stroke="black" d="M354.05,-118.58C354.05,-157.7 354.05,-262 354.05,-262 354.05,-262 525.3,-262 525.3,-262"/>
<polygon fill="black" stroke="black" points="525.3,-265.5 535.3,-262 525.3,-258.5 525.3,-265.5"/>
</g>
<!-- FirebaseService -->
<g id="node5" class="node">
<title>FirebaseService</title>
<ellipse fill="#fdb462" stroke="black" cx="572" cy="-104" rx="72.91" ry="18"/>
<text text-anchor="middle" x="572" y="-99.8" font-family="Times,serif" font-size="14.00">FirebaseService</text>
</g>
<!-- FirebaseService&#45;&gt;UsersModule -->
<g id="edge36" class="edge">
<title>FirebaseService&#45;&gt;UsersModule</title>
<path fill="none" stroke="black" d="M548,-121.25C548,-121.25 548,-151.76 548,-151.76"/>
<polygon fill="black" stroke="black" points="544.5,-151.76 548,-161.76 551.5,-151.76 544.5,-151.76"/>
</g>
<!-- FirebaseService&#45;&gt;AddressesModule -->
<g id="edge4" class="edge">
<title>FirebaseService&#45;&gt;AddressesModule</title>
<path fill="none" stroke="black" d="M627.71,-115.93C627.71,-115.93 627.71,-227.67 627.71,-227.67"/>
<polygon fill="black" stroke="black" points="624.21,-227.67 627.71,-237.67 631.21,-227.67 624.21,-227.67"/>
</g>
<!-- BookingModule -->
<g id="node8" class="node">
<title>BookingModule</title>
<polygon fill="#8dd3c7" stroke="black" points="1294.78,-198 1291.78,-202 1270.78,-202 1267.78,-198 1187.22,-198 1187.22,-162 1294.78,-162 1294.78,-198"/>
<text text-anchor="middle" x="1241" y="-175.8" font-family="Times,serif" font-size="14.00">BookingModule</text>
</g>
<!-- FirebaseService&#45;&gt;BookingModule -->
<g id="edge20" class="edge">
<title>FirebaseService&#45;&gt;BookingModule</title>
<path fill="none" stroke="black" d="M602.21,-120.37C602.21,-128.25 602.21,-136 602.21,-136 602.21,-136 1205.04,-136 1205.04,-136 1205.04,-136 1205.04,-151.85 1205.04,-151.85"/>
<polygon fill="black" stroke="black" points="1201.54,-151.85 1205.04,-161.85 1208.54,-151.85 1201.54,-151.85"/>
</g>
<!-- FirebaseService&#45;&gt;DriversLicensesModule -->
<g id="edge23" class="edge">
<title>FirebaseService&#45;&gt;DriversLicensesModule</title>
<path fill="none" stroke="black" d="M636.2,-112.49C636.2,-130.51 636.2,-171 636.2,-171 636.2,-171 1008.92,-171 1008.92,-171"/>
<polygon fill="black" stroke="black" points="1008.92,-174.5 1018.92,-171 1008.92,-167.5 1008.92,-174.5"/>
</g>
<!-- FirebaseModule -->
<g id="node11" class="node">
<title>FirebaseModule</title>
<polygon fill="#8dd3c7" stroke="black" points="1419.47,-198 1416.47,-202 1395.47,-202 1392.47,-198 1312.53,-198 1312.53,-162 1419.47,-162 1419.47,-198"/>
<text text-anchor="middle" x="1366" y="-175.8" font-family="Times,serif" font-size="14.00">FirebaseModule</text>
</g>
<!-- FirebaseService&#45;&gt;FirebaseModule -->
<g id="edge27" class="edge">
<title>FirebaseService&#45;&gt;FirebaseModule</title>
<path fill="none" stroke="black" d="M610.71,-119.39C610.71,-125.46 610.71,-131 610.71,-131 610.71,-131 1366,-131 1366,-131 1366,-131 1366,-151.75 1366,-151.75"/>
<polygon fill="black" stroke="black" points="1362.5,-151.75 1366,-161.75 1369.5,-151.75 1362.5,-151.75"/>
</g>
<!-- TripsModule -->
<g id="node12" class="node">
<title>TripsModule</title>
<polygon fill="#8dd3c7" stroke="black" points="1526.6,-198 1523.6,-202 1502.6,-202 1499.6,-198 1437.4,-198 1437.4,-162 1526.6,-162 1526.6,-198"/>
<text text-anchor="middle" x="1482" y="-175.8" font-family="Times,serif" font-size="14.00">TripsModule</text>
</g>
<!-- FirebaseService&#45;&gt;TripsModule -->
<g id="edge31" class="edge">
<title>FirebaseService&#45;&gt;TripsModule</title>
<path fill="none" stroke="black" d="M619.21,-117.91C619.21,-122.75 619.21,-127 619.21,-127 619.21,-127 1442.09,-127 1442.09,-127 1442.09,-127 1442.09,-151.76 1442.09,-151.76"/>
<polygon fill="black" stroke="black" points="1438.59,-151.76 1442.09,-161.76 1445.59,-151.76 1438.59,-151.76"/>
</g>
<!-- AdminsService -->
<g id="node6" class="node">
<title>AdminsService</title>
<ellipse fill="#fdb462" stroke="black" cx="2040" cy="-180" rx="70.64" ry="18"/>
<text text-anchor="middle" x="2040" y="-175.8" font-family="Times,serif" font-size="14.00">AdminsService</text>
</g>
<!-- AdminsModule -->
<g id="node7" class="node">
<title>AdminsModule</title>
<polygon fill="#8dd3c7" stroke="black" points="2077.88,-274 2074.88,-278 2053.88,-278 2050.88,-274 1974.12,-274 1974.12,-238 2077.88,-238 2077.88,-274"/>
<text text-anchor="middle" x="2026" y="-251.8" font-family="Times,serif" font-size="14.00">AdminsModule</text>
</g>
<!-- AdminsService&#45;&gt;AdminsModule -->
<g id="edge5" class="edge">
<title>AdminsService&#45;&gt;AdminsModule</title>
<path fill="none" stroke="black" d="M2026,-198.01C2026,-198.01 2026,-227.85 2026,-227.85"/>
<polygon fill="black" stroke="black" points="2022.5,-227.85 2026,-237.85 2029.5,-227.85 2022.5,-227.85"/>
</g>
<!-- AdminsModule&#45;&gt;AppModule -->
<g id="edge7" class="edge">
<title>AdminsModule&#45;&gt;AppModule</title>
<path fill="none" stroke="black" d="M2026,-274.09C2026,-297.13 2026,-334 2026,-334 2026,-334 1169.67,-334 1169.67,-334"/>
<polygon fill="black" stroke="black" points="1169.67,-330.5 1159.67,-334 1169.67,-337.5 1169.67,-330.5"/>
</g>
<!-- BookingModule&#45;&gt;AppModule -->
<g id="edge8" class="edge">
<title>BookingModule&#45;&gt;AppModule</title>
<path fill="none" stroke="black" d="M1272.22,-198.07C1272.22,-234.65 1272.22,-314 1272.22,-314 1272.22,-314 1169.74,-314 1169.74,-314"/>
<polygon fill="black" stroke="black" points="1169.74,-310.5 1159.74,-314 1169.74,-317.5 1169.74,-310.5"/>
</g>
<!-- DriversLicensesModule&#45;&gt;AppModule -->
<g id="edge9" class="edge">
<title>DriversLicensesModule&#45;&gt;AppModule</title>
<path fill="none" stroke="black" d="M1092.9,-198.14C1092.9,-198.14 1092.9,-292.93 1092.9,-292.93"/>
<polygon fill="black" stroke="black" points="1089.4,-292.92 1092.9,-302.93 1096.4,-292.93 1089.4,-292.92"/>
</g>
<!-- FileStorageModule -->
<g id="node10" class="node">
<title>FileStorageModule</title>
<polygon fill="#8dd3c7" stroke="black" points="1527.09,-274 1524.09,-278 1503.09,-278 1500.09,-274 1402.91,-274 1402.91,-238 1527.09,-238 1527.09,-274"/>
<text text-anchor="middle" x="1465" y="-251.8" font-family="Times,serif" font-size="14.00">FileStorageModule</text>
</g>
<!-- FileStorageModule&#45;&gt;AppModule -->
<g id="edge10" class="edge">
<title>FileStorageModule&#45;&gt;AppModule</title>
<path fill="none" stroke="black" d="M1465,-274.04C1465,-295.66 1465,-329 1465,-329 1465,-329 1169.86,-329 1169.86,-329"/>
<polygon fill="black" stroke="black" points="1169.86,-325.5 1159.86,-329 1169.86,-332.5 1169.86,-325.5"/>
</g>
<!-- FirebaseModule&#45;&gt;FileStorageModule -->
<g id="edge24" class="edge">
<title>FirebaseModule&#45;&gt;FileStorageModule</title>
<path fill="none" stroke="black" d="M1411.22,-198.01C1411.22,-198.01 1411.22,-227.85 1411.22,-227.85"/>
<polygon fill="black" stroke="black" points="1407.72,-227.85 1411.22,-237.85 1414.72,-227.85 1407.72,-227.85"/>
</g>
<!-- UserModule -->
<g id="node13" class="node">
<title>UserModule</title>
<polygon fill="#8dd3c7" stroke="black" points="1262.98,-274 1259.98,-278 1238.98,-278 1235.98,-274 1177.02,-274 1177.02,-238 1262.98,-238 1262.98,-274"/>
<text text-anchor="middle" x="1220" y="-251.8" font-family="Times,serif" font-size="14.00">UserModule</text>
</g>
<!-- FirebaseModule&#45;&gt;UserModule -->
<g id="edge33" class="edge">
<title>FirebaseModule&#45;&gt;UserModule</title>
<path fill="none" stroke="black" d="M1341.32,-198.04C1341.32,-210.56 1341.32,-225 1341.32,-225 1341.32,-225 1225.05,-225 1225.05,-225 1225.05,-225 1225.05,-227.97 1225.05,-227.97"/>
<polygon fill="black" stroke="black" points="1221.55,-227.97 1225.05,-237.97 1228.55,-227.97 1221.55,-227.97"/>
</g>
<!-- VehicleModule -->
<g id="node14" class="node">
<title>VehicleModule</title>
<polygon fill="#8dd3c7" stroke="black" points="1384.58,-274 1381.58,-278 1360.58,-278 1357.58,-274 1281.42,-274 1281.42,-238 1384.58,-238 1384.58,-274"/>
<text text-anchor="middle" x="1333" y="-251.8" font-family="Times,serif" font-size="14.00">VehicleModule</text>
</g>
<!-- FirebaseModule&#45;&gt;VehicleModule -->
<g id="edge39" class="edge">
<title>FirebaseModule&#45;&gt;VehicleModule</title>
<path fill="none" stroke="black" d="M1355.73,-198.01C1355.73,-198.01 1355.73,-227.85 1355.73,-227.85"/>
<polygon fill="black" stroke="black" points="1352.23,-227.85 1355.73,-237.85 1359.23,-227.85 1352.23,-227.85"/>
</g>
<!-- FirebaseModule&#45;&gt;AppModule -->
<g id="edge11" class="edge">
<title>FirebaseModule&#45;&gt;AppModule</title>
<path fill="none" stroke="black" d="M1393.75,-198.24C1393.75,-236.99 1393.75,-324 1393.75,-324 1393.75,-324 1169.88,-324 1169.88,-324"/>
<polygon fill="black" stroke="black" points="1169.88,-320.5 1159.88,-324 1169.88,-327.5 1169.88,-320.5"/>
</g>
<!-- FirebaseService  -->
<g id="node21" class="node">
<title>FirebaseService </title>
<polygon fill="#fb8072" stroke="black" points="927.4,-274 818.6,-274 818.6,-238 927.4,-238 927.4,-274"/>
<text text-anchor="middle" x="873" y="-251.8" font-family="Times,serif" font-size="14.00">FirebaseService </text>
</g>
<!-- FirebaseModule&#45;&gt;FirebaseService  -->
<g id="edge26" class="edge">
<title>FirebaseModule&#45;&gt;FirebaseService </title>
<path fill="none" stroke="black" stroke-dasharray="5,2" d="M1326.92,-198.17C1326.92,-202.05 1326.92,-205 1326.92,-205 1326.92,-205 873,-205 873,-205 873,-205 873,-227.88 873,-227.88"/>
<polygon fill="black" stroke="black" points="869.5,-227.88 873,-237.88 876.5,-227.88 869.5,-227.88"/>
</g>
<!-- TripsModule&#45;&gt;AppModule -->
<g id="edge13" class="edge">
<title>TripsModule&#45;&gt;AppModule</title>
<path fill="none" stroke="black" d="M1482,-198.11C1482,-207.9 1482,-218 1482,-218 1482,-218 1126.37,-218 1126.37,-218 1126.37,-218 1126.37,-292.59 1126.37,-292.59"/>
<polygon fill="black" stroke="black" points="1122.87,-292.59 1126.37,-302.59 1129.87,-292.59 1122.87,-292.59"/>
</g>
<!-- UserModule&#45;&gt;AppModule -->
<g id="edge14" class="edge">
<title>UserModule&#45;&gt;AppModule</title>
<path fill="none" stroke="black" d="M1176.6,-256C1159.16,-256 1143.1,-256 1143.1,-256 1143.1,-256 1143.1,-292.89 1143.1,-292.89"/>
<polygon fill="black" stroke="black" points="1139.6,-292.89 1143.1,-302.89 1146.6,-292.89 1139.6,-292.89"/>
</g>
<!-- VehicleModule&#45;&gt;AppModule -->
<g id="edge15" class="edge">
<title>VehicleModule&#45;&gt;AppModule</title>
<path fill="none" stroke="black" d="M1333,-274.22C1333,-292.83 1333,-319 1333,-319 1333,-319 1169.71,-319 1169.71,-319"/>
<polygon fill="black" stroke="black" points="1169.71,-315.5 1159.71,-319 1169.71,-322.5 1169.71,-315.5"/>
</g>
<!-- AppService -->
<g id="node16" class="node">
<title>AppService</title>
<ellipse fill="#fdb462" stroke="black" cx="1024" cy="-104" rx="56.74" ry="18"/>
<text text-anchor="middle" x="1024" y="-99.8" font-family="Times,serif" font-size="14.00">AppService</text>
</g>
<!-- AppService&#45;&gt;AppModule -->
<g id="edge16" class="edge">
<title>AppService&#45;&gt;AppModule</title>
<path fill="none" stroke="black" d="M993.06,-119.29C993.06,-167.33 993.06,-312 993.06,-312 993.06,-312 1066.05,-312 1066.05,-312"/>
<polygon fill="black" stroke="black" points="1066.05,-315.5 1076.05,-312 1066.05,-308.5 1066.05,-315.5"/>
</g>
<!-- DriversLicensesService -->
<g id="node17" class="node">
<title>DriversLicensesService</title>
<ellipse fill="#fdb462" stroke="black" cx="1344" cy="-104" rx="102.96" ry="18"/>
<text text-anchor="middle" x="1344" y="-99.8" font-family="Times,serif" font-size="14.00">DriversLicensesService</text>
</g>
<!-- DriversLicensesService&#45;&gt;DriversLicensesModule -->
<g id="edge22" class="edge">
<title>DriversLicensesService&#45;&gt;DriversLicensesModule</title>
<path fill="none" stroke="black" d="M1259.14,-114.44C1259.14,-127.73 1259.14,-149 1259.14,-149 1259.14,-149 1145.84,-149 1145.84,-149 1145.84,-149 1145.84,-151.97 1145.84,-151.97"/>
<polygon fill="black" stroke="black" points="1142.34,-151.97 1145.84,-161.97 1149.34,-151.97 1142.34,-151.97"/>
</g>
<!-- DriversLicensesService&#45;&gt;AppModule -->
<g id="edge17" class="edge">
<title>DriversLicensesService&#45;&gt;AppModule</title>
<path fill="none" stroke="black" d="M1303.7,-120.88C1303.7,-151.25 1303.7,-212 1303.7,-212 1303.7,-212 1109.63,-212 1109.63,-212 1109.63,-212 1109.63,-292.51 1109.63,-292.51"/>
<polygon fill="black" stroke="black" points="1106.13,-292.51 1109.63,-302.51 1113.13,-292.51 1106.13,-292.51"/>
</g>
<!-- UsersService -->
<g id="node18" class="node">
<title>UsersService</title>
<ellipse fill="#fdb462" stroke="black" cx="1161" cy="-104" rx="61.95" ry="18"/>
<text text-anchor="middle" x="1161" y="-99.8" font-family="Times,serif" font-size="14.00">UsersService</text>
</g>
<!-- UsersService&#45;&gt;UsersModule -->
<g id="edge38" class="edge">
<title>UsersService&#45;&gt;UsersModule</title>
<path fill="none" stroke="black" d="M1122.43,-118.23C1122.43,-128.29 1122.43,-140 1122.43,-140 1122.43,-140 570.86,-140 570.86,-140 570.86,-140 570.86,-151.87 570.86,-151.87"/>
<polygon fill="black" stroke="black" points="567.36,-151.87 570.86,-161.87 574.36,-151.87 567.36,-151.87"/>
</g>
<!-- UsersService&#45;&gt;UserModule -->
<g id="edge34" class="edge">
<title>UsersService&#45;&gt;UserModule</title>
<path fill="none" stroke="black" d="M1182.06,-121.14C1182.06,-121.14 1182.06,-227.74 1182.06,-227.74"/>
<polygon fill="black" stroke="black" points="1178.56,-227.74 1182.06,-237.74 1185.56,-227.74 1178.56,-227.74"/>
</g>
<!-- UsersService&#45;&gt;AppModule -->
<g id="edge18" class="edge">
<title>UsersService&#45;&gt;AppModule</title>
<path fill="none" stroke="black" d="M1173.13,-121.83C1173.13,-171.71 1173.13,-309 1173.13,-309 1173.13,-309 1169.79,-309 1169.79,-309"/>
<polygon fill="black" stroke="black" points="1169.79,-305.5 1159.79,-309 1169.79,-312.5 1169.79,-305.5"/>
</g>
<!-- BookingService -->
<g id="node19" class="node">
<title>BookingService</title>
<ellipse fill="#fdb462" stroke="black" cx="1812" cy="-104" rx="73.02" ry="18"/>
<text text-anchor="middle" x="1812" y="-99.8" font-family="Times,serif" font-size="14.00">BookingService</text>
</g>
<!-- BookingService&#45;&gt;BookingModule -->
<g id="edge19" class="edge">
<title>BookingService&#45;&gt;BookingModule</title>
<path fill="none" stroke="black" d="M1745.66,-111.81C1745.66,-125.88 1745.66,-154 1745.66,-154 1745.66,-154 1277.02,-154 1277.02,-154 1277.02,-154 1277.02,-154.79 1277.02,-154.79"/>
<polygon fill="black" stroke="black" points="1273.52,-151.94 1277.02,-161.94 1280.52,-151.94 1273.52,-151.94"/>
</g>
<!-- BookingService&#45;&gt;TripsModule -->
<g id="edge30" class="edge">
<title>BookingService&#45;&gt;TripsModule</title>
<path fill="none" stroke="black" d="M1752.57,-114.67C1752.57,-130.41 1752.57,-158 1752.57,-158 1752.57,-158 1499.94,-158 1499.94,-158 1499.94,-158 1499.94,-158.38 1499.94,-158.38"/>
<polygon fill="black" stroke="black" points="1496.44,-151.83 1499.94,-161.83 1503.44,-151.83 1496.44,-151.83"/>
</g>
<!-- FileStorageService -->
<g id="node20" class="node">
<title>FileStorageService</title>
<ellipse fill="#fdb462" stroke="black" cx="1844" cy="-180" rx="84.52" ry="18"/>
<text text-anchor="middle" x="1844" y="-175.8" font-family="Times,serif" font-size="14.00">FileStorageService</text>
</g>
<!-- FileStorageService&#45;&gt;FileStorageModule -->
<g id="edge25" class="edge">
<title>FileStorageService&#45;&gt;FileStorageModule</title>
<path fill="none" stroke="black" d="M1844,-198.01C1844,-220.49 1844,-256 1844,-256 1844,-256 1537.16,-256 1537.16,-256"/>
<polygon fill="black" stroke="black" points="1537.16,-252.5 1527.16,-256 1537.16,-259.5 1537.16,-252.5"/>
</g>
<!-- PrismaService -->
<g id="node23" class="node">
<title>PrismaService</title>
<ellipse fill="#fdb462" stroke="black" cx="215" cy="-104" rx="66.63" ry="18"/>
<text text-anchor="middle" x="215" y="-99.8" font-family="Times,serif" font-size="14.00">PrismaService</text>
</g>
<!-- PrismaService&#45;&gt;PrismaModule -->
<g id="edge29" class="edge">
<title>PrismaService&#45;&gt;PrismaModule</title>
<path fill="none" stroke="black" d="M237.27,-121.3C237.27,-142.03 237.27,-174 237.27,-174 237.27,-174 375.61,-174 375.61,-174"/>
<polygon fill="black" stroke="black" points="375.61,-177.5 385.61,-174 375.61,-170.5 375.61,-177.5"/>
</g>
<!-- PrismaService&#45;&gt;UsersModule -->
<g id="edge37" class="edge">
<title>PrismaService&#45;&gt;UsersModule</title>
<path fill="none" stroke="black" d="M192.73,-121.15C192.73,-132.39 192.73,-145 192.73,-145 192.73,-145 525.14,-145 525.14,-145 525.14,-145 525.14,-151.68 525.14,-151.68"/>
<polygon fill="black" stroke="black" points="521.64,-151.68 525.14,-161.68 528.64,-151.68 521.64,-151.68"/>
</g>
<!-- TripsService -->
<g id="node24" class="node">
<title>TripsService</title>
<ellipse fill="#fdb462" stroke="black" cx="1639" cy="-104" rx="60.25" ry="18"/>
<text text-anchor="middle" x="1639" y="-99.8" font-family="Times,serif" font-size="14.00">TripsService</text>
</g>
<!-- TripsService&#45;&gt;TripsModule -->
<g id="edge32" class="edge">
<title>TripsService&#45;&gt;TripsModule</title>
<path fill="none" stroke="black" d="M1578.25,-104C1530.97,-104 1473.34,-104 1473.34,-104 1473.34,-104 1473.34,-151.99 1473.34,-151.99"/>
<polygon fill="black" stroke="black" points="1469.84,-151.99 1473.34,-161.99 1476.84,-151.99 1469.84,-151.99"/>
</g>
<!-- VehicleService -->
<g id="node26" class="node">
<title>VehicleService</title>
<ellipse fill="#fdb462" stroke="black" cx="1649" cy="-180" rx="70.04" ry="18"/>
<text text-anchor="middle" x="1649" y="-175.8" font-family="Times,serif" font-size="14.00">VehicleService</text>
</g>
<!-- VehicleService&#45;&gt;VehicleModule -->
<g id="edge40" class="edge">
<title>VehicleService&#45;&gt;VehicleModule</title>
<path fill="none" stroke="black" d="M1649,-198.19C1649,-213.18 1649,-232 1649,-232 1649,-232 1370.14,-232 1370.14,-232 1370.14,-232 1370.14,-232.58 1370.14,-232.58"/>
<polygon fill="black" stroke="black" points="1366.64,-227.81 1370.14,-237.81 1373.64,-227.81 1366.64,-227.81"/>
</g>
</g>
</svg>
