<?xml version="1.0" encoding="UTF-8"?>
<svg id="k" xmlns="http://www.w3.org/2000/svg" viewBox="0 0 9.6 9.6">
    <path id="l"
        d="M4.81.17C2.06.17,0,2.24,0,4.8v.03c0,2.56,2.04,4.61,4.79,4.61s4.81-2.08,4.81-4.63v-.03C9.6,2.22,7.56.17,4.81.17ZM5.05,7.18c-.15.12-.36.12-.5,0-.55-.46-1.78-1.62-1.78-2.68,0-1.12.91-2.04,2.04-2.04s2.04.91,2.04,2.04-1.24,2.22-1.78,2.68Z" />
    <path id="m" d="M4.8,3.94c-.47,0-.86.38-.86.86s.38.86.86.86.86-.38.86-.86-.38-.86-.86-.86Z"
        fill="#c42127" />
</svg>