<?xml version="1.0" encoding="UTF-8" standalone="no"?>
<!DOCTYPE svg PUBLIC "-//W3C//DTD SVG 1.1//EN"
 "http://www.w3.org/Graphics/SVG/1.1/DTD/svg11.dtd">
<!-- Generated by graphviz version 2.47.0 (20210316.0004)
 -->
<!-- Title: dependencies Pages: 1 -->
<svg width="541pt" height="211pt"
 viewBox="0.00 0.00 541.00 211.00" xmlns="http://www.w3.org/2000/svg" xmlns:xlink="http://www.w3.org/1999/xlink">
<g id="graph0" class="graph" transform="scale(1 1) rotate(0) translate(4 207)">
<title>dependencies</title>
<polygon fill="white" stroke="transparent" points="-4,4 -4,-207 537,-207 537,4 -4,4"/>
<text text-anchor="start" x="245.51" y="-42.4" font-family="Times-12" font-weight="bold" font-size="14.00">Legend</text>
<polygon fill="#ffffb3" stroke="transparent" points="32.5,-10 32.5,-30 52.5,-30 52.5,-10 32.5,-10"/>
<text text-anchor="start" x="56.13" y="-15.4" font-family="Times-12" font-size="14.00"> &#160;Declarations</text>
<polygon fill="#8dd3c7" stroke="transparent" points="145.5,-10 145.5,-30 165.5,-30 165.5,-10 145.5,-10"/>
<text text-anchor="start" x="169.23" y="-15.4" font-family="Times-12" font-size="14.00"> &#160;Module</text>
<polygon fill="#80b1d3" stroke="transparent" points="231.5,-10 231.5,-30 251.5,-30 251.5,-10 231.5,-10"/>
<text text-anchor="start" x="255.28" y="-15.4" font-family="Times-12" font-size="14.00"> &#160;Bootstrap</text>
<polygon fill="#fdb462" stroke="transparent" points="328.5,-10 328.5,-30 348.5,-30 348.5,-10 328.5,-10"/>
<text text-anchor="start" x="352.17" y="-15.4" font-family="Times-12" font-size="14.00"> &#160;Providers</text>
<polygon fill="#fb8072" stroke="transparent" points="424.5,-10 424.5,-30 444.5,-30 444.5,-10 424.5,-10"/>
<text text-anchor="start" x="448.23" y="-15.4" font-family="Times-12" font-size="14.00"> &#160;Exports</text>
<g id="clust1" class="cluster">
<title>cluster_DriversLicensesModule</title>
<polygon fill="none" stroke="black" stroke-dasharray="1,5" points="8,-70 8,-195 525,-195 525,-70 8,-70"/>
</g>
<g id="clust6" class="cluster">
<title>cluster_DriversLicensesModule_providers</title>
<polygon fill="none" stroke="black" points="132,-78 132,-130 517,-130 517,-78 132,-78"/>
</g>
<g id="clust3" class="cluster">
<title>cluster_DriversLicensesModule_imports</title>
<polygon fill="none" stroke="black" points="16,-78 16,-130 124,-130 124,-78 16,-78"/>
</g>
<!-- UsersModule -->
<g id="node1" class="node">
<title>UsersModule</title>
<polygon fill="#8dd3c7" stroke="black" points="115.92,-122 112.92,-126 91.92,-126 88.92,-122 24.08,-122 24.08,-86 115.92,-86 115.92,-122"/>
<text text-anchor="middle" x="70" y="-99.8" font-family="Times,serif" font-size="14.00">UsersModule</text>
</g>
<!-- DriversLicensesModule -->
<g id="node2" class="node">
<title>DriversLicensesModule</title>
<polygon fill="#8dd3c7" stroke="black" points="288,-187 285,-191 264,-191 261,-187 138,-187 138,-151 288,-151 288,-187"/>
<text text-anchor="middle" x="213" y="-164.8" font-family="Times,serif" font-size="14.00">DriversLicensesModule</text>
</g>
<!-- UsersModule&#45;&gt;DriversLicensesModule -->
<g id="edge1" class="edge">
<title>UsersModule&#45;&gt;DriversLicensesModule</title>
<path fill="none" stroke="black" d="M70,-122.11C70,-141.34 70,-169 70,-169 70,-169 127.73,-169 127.73,-169"/>
<polygon fill="black" stroke="black" points="127.73,-172.5 137.73,-169 127.73,-165.5 127.73,-172.5"/>
</g>
<!-- DriversLicensesService -->
<g id="node3" class="node">
<title>DriversLicensesService</title>
<ellipse fill="#fdb462" stroke="black" cx="406" cy="-104" rx="102.96" ry="18"/>
<text text-anchor="middle" x="406" y="-99.8" font-family="Times,serif" font-size="14.00">DriversLicensesService</text>
</g>
<!-- DriversLicensesService&#45;&gt;DriversLicensesModule -->
<g id="edge2" class="edge">
<title>DriversLicensesService&#45;&gt;DriversLicensesModule</title>
<path fill="none" stroke="black" d="M406,-122.11C406,-141.34 406,-169 406,-169 406,-169 298.17,-169 298.17,-169"/>
<polygon fill="black" stroke="black" points="298.17,-165.5 288.17,-169 298.17,-172.5 298.17,-165.5"/>
</g>
<!-- FirebaseService -->
<g id="node4" class="node">
<title>FirebaseService</title>
<ellipse fill="#fdb462" stroke="black" cx="213" cy="-104" rx="72.91" ry="18"/>
<text text-anchor="middle" x="213" y="-99.8" font-family="Times,serif" font-size="14.00">FirebaseService</text>
</g>
<!-- FirebaseService&#45;&gt;DriversLicensesModule -->
<g id="edge3" class="edge">
<title>FirebaseService&#45;&gt;DriversLicensesModule</title>
<path fill="none" stroke="black" d="M213,-122.11C213,-122.11 213,-140.99 213,-140.99"/>
<polygon fill="black" stroke="black" points="209.5,-140.99 213,-150.99 216.5,-140.99 209.5,-140.99"/>
</g>
</g>
</svg>
