<?xml version="1.0" encoding="UTF-8"?>
<svg id="Layer_2" data-name="Layer 2" xmlns="http://www.w3.org/2000/svg" viewBox="0 0 35.11 11.22">
  <g id="RAO_Admin">
    <path
      d="M0,.22h5.1c1.65,0,2.79.43,3.51,1.16.63.63.96,1.45.96,2.51v.03c0,1.66-.88,2.76-2.22,3.33l2.57,3.76h-3.44l-2.17-3.27h-1.33v3.27H0V.22ZM4.98,5.4c1,0,1.6-.49,1.6-1.28v-.03c0-.86-.63-1.29-1.62-1.29h-1.97v2.61h1.99ZM15.91.14h2.88l4.59,10.87h-3.21l-.77-1.94h-4.18l-.77,1.94h-3.13L15.91.14ZM18.53,6.74l-1.2-3.05-1.22,3.05h2.42ZM29.32,0c-3.33,0-5.83,2.51-5.83,5.61v.03c0,3.1,2.47,5.58,5.8,5.58s5.83-2.51,5.83-5.61v-.03c0-3.1-2.47-5.58-5.8-5.58ZM29.61,8.5c-.18.15-.44.15-.61,0-.66-.55-2.16-1.96-2.16-3.24,0-1.36,1.1-2.46,2.47-2.46s2.46,1.1,2.46,2.46-1.5,2.69-2.16,3.24ZM29.3,4.57c-.57,0-1.04.47-1.04,1.04s.46,1.04,1.04,1.04,1.04-.46,1.04-1.04-.47-1.04-1.04-1.04Z"
      fill="currentColor" />
  </g>
</svg>