<?xml version="1.0" encoding="UTF-8"?>
<svg id="Layer_2" data-name="Layer 2" xmlns="http://www.w3.org/2000/svg" viewBox="0 0 42.08 5.2">
  <g id="RAO_Admin">
    <path
      d="M0,.07h2.17c.62,0,1.12.19,1.44.51.25.25.39.6.39,1h0c0,.85-.58,1.34-1.37,1.49l1.55,2.06h-.7l-1.47-1.96H.57v1.96h-.57V.07ZM2.12,2.65c.76,0,1.3-.39,1.3-1.04h0c0-.64-.48-1.01-1.29-1.01H.57v2.05h1.55ZM6.66.07h3.65v.52h-3.08v1.72h2.76v.52h-2.76v1.77h3.12v.52h-3.69V.07ZM12.94.07h.53l3.18,4.05V.07h.56v5.05h-.45L13.5.98v4.14h-.56V.07ZM21.43.6h-1.7V.07h3.97v.53h-1.7v4.53h-.58V.6ZM27.43.04h.53l2.3,5.09h-.61l-.59-1.34h-2.75l-.6,1.34h-.58L27.43.04ZM28.84,3.27l-1.15-2.57-1.15,2.57h2.3ZM32.71.07h.57v4.53h2.84v.53h-3.41V.07ZM38.29,4.39l.35-.42c.53.48,1.03.71,1.73.71s1.13-.36,1.13-.86h0c0-.48-.25-.75-1.31-.97-1.16-.25-1.7-.63-1.7-1.46h0c0-.81.7-1.39,1.66-1.39.74,0,1.26.21,1.78.62l-.33.44c-.47-.38-.94-.55-1.46-.55-.66,0-1.08.36-1.08.82h0c0,.49.26.76,1.37,1,1.13.25,1.65.66,1.65,1.43h0c0,.88-.72,1.44-1.72,1.44-.8,0-1.46-.27-2.06-.81Z"
      fill="currentColor" />
  </g>
</svg>